%TF.GenerationSoftware,KiCad,Pcbnew,6.0.0*%
%TF.CreationDate,2022-01-23T14:05:37+02:00*%
%TF.ProjectId,colorlight-i5-ethernet,636f6c6f-726c-4696-9768-742d69352d65,rev?*%
%TF.SameCoordinates,Original*%
%TF.FileFunction,Copper,L2,Bot*%
%TF.FilePolarity,Positive*%
%FSLAX46Y46*%
G04 Gerber Fmt 4.6, Leading zero omitted, Abs format (unit mm)*
G04 Created by KiCad (PCBNEW 6.0.0) date 2022-01-23 14:05:37*
%MOMM*%
%LPD*%
G01*
G04 APERTURE LIST*
%TA.AperFunction,ComponentPad*%
%ADD10C,2.500000*%
%TD*%
%TA.AperFunction,ComponentPad*%
%ADD11C,1.700000*%
%TD*%
%TA.AperFunction,ComponentPad*%
%ADD12C,1.524000*%
%TD*%
%TA.AperFunction,ComponentPad*%
%ADD13R,1.700000X1.700000*%
%TD*%
%TA.AperFunction,ComponentPad*%
%ADD14O,1.700000X1.700000*%
%TD*%
%TA.AperFunction,ViaPad*%
%ADD15C,0.600000*%
%TD*%
%TA.AperFunction,Conductor*%
%ADD16C,0.200000*%
%TD*%
G04 APERTURE END LIST*
D10*
%TO.P,J2,SH*%
%TO.N,Earth*%
X52830000Y-24000000D03*
X52830000Y-39500000D03*
D11*
%TO.P,J2,14*%
%TO.N,Net-(J2-Pad14)*%
X60780000Y-25120000D03*
%TO.P,J2,13*%
%TO.N,Net-(J2-Pad13)*%
X60780000Y-27660000D03*
%TO.P,J2,12*%
%TO.N,Net-(J2-Pad12)*%
X60780000Y-35840000D03*
%TO.P,J2,11*%
%TO.N,Net-(J2-Pad11)*%
X60780000Y-38380000D03*
D12*
%TO.P,J2,10*%
%TO.N,/ETH1_4_N*%
X49530000Y-26035000D03*
%TO.P,J2,9*%
%TO.N,/ETH1_4_P*%
X46990000Y-27305000D03*
%TO.P,J2,8*%
%TO.N,/ETH1_3_N*%
X49530000Y-28575000D03*
%TO.P,J2,7*%
%TO.N,/ETH1_3_P*%
X46990000Y-29845000D03*
%TO.P,J2,6*%
%TO.N,Net-(C1-Pad1)*%
X49530000Y-31115000D03*
%TO.P,J2,5*%
X46990000Y-32385000D03*
%TO.P,J2,4*%
%TO.N,/ETH1_2_N*%
X49530000Y-33655000D03*
%TO.P,J2,3*%
%TO.N,/ETH1_2_P*%
X46990000Y-34925000D03*
%TO.P,J2,2*%
%TO.N,/ETH1_1_N*%
X49530000Y-36195000D03*
%TO.P,J2,1*%
%TO.N,/ETH1_1_P*%
X46990000Y-37465000D03*
%TD*%
D10*
%TO.P,J3,SH*%
%TO.N,Earth*%
X52830000Y-46860000D03*
X52830000Y-62360000D03*
D11*
%TO.P,J3,14*%
%TO.N,Net-(J3-Pad14)*%
X60780000Y-47980000D03*
%TO.P,J3,13*%
%TO.N,Net-(J3-Pad13)*%
X60780000Y-50520000D03*
%TO.P,J3,12*%
%TO.N,Net-(J3-Pad12)*%
X60780000Y-58700000D03*
%TO.P,J3,11*%
%TO.N,Net-(J3-Pad11)*%
X60780000Y-61240000D03*
D12*
%TO.P,J3,10*%
%TO.N,/ETH2_4_N*%
X49530000Y-48895000D03*
%TO.P,J3,9*%
%TO.N,/ETH2_4_P*%
X46990000Y-50165000D03*
%TO.P,J3,8*%
%TO.N,/ETH2_3_N*%
X49530000Y-51435000D03*
%TO.P,J3,7*%
%TO.N,/ETH2_3_P*%
X46990000Y-52705000D03*
%TO.P,J3,6*%
%TO.N,Net-(C2-Pad1)*%
X49530000Y-53975000D03*
%TO.P,J3,5*%
X46990000Y-55245000D03*
%TO.P,J3,4*%
%TO.N,/ETH2_2_N*%
X49530000Y-56515000D03*
%TO.P,J3,3*%
%TO.N,/ETH2_2_P*%
X46990000Y-57785000D03*
%TO.P,J3,2*%
%TO.N,/ETH2_1_N*%
X49530000Y-59055000D03*
%TO.P,J3,1*%
%TO.N,/ETH2_1_P*%
X46990000Y-60325000D03*
%TD*%
D13*
%TO.P,J1,1*%
%TO.N,/ETH1_2_P*%
X35560000Y-25400000D03*
D14*
%TO.P,J1,30*%
%TO.N,/ETH1_4_P*%
X33020000Y-25400000D03*
%TO.P,J1,2*%
%TO.N,/ETH1_2_N*%
X35560000Y-27940000D03*
%TO.P,J1,29*%
%TO.N,/ETH1_4_N*%
X33020000Y-27940000D03*
%TO.P,J1,3*%
%TO.N,/ETH1_1_N*%
X35560000Y-30480000D03*
%TO.P,J1,28*%
%TO.N,/ETH1_3_N*%
X33020000Y-30480000D03*
%TO.P,J1,4*%
%TO.N,/ETH1_1_P*%
X35560000Y-33020000D03*
%TO.P,J1,27*%
%TO.N,/ETH1_3_P*%
X33020000Y-33020000D03*
%TO.P,J1,5*%
%TO.N,GND*%
X35560000Y-35560000D03*
%TO.P,J1,26*%
X33020000Y-35560000D03*
%TO.P,J1,6*%
%TO.N,Net-(J1-Pad6)*%
X35560000Y-38100000D03*
%TO.P,J1,25*%
%TO.N,Net-(J1-Pad25)*%
X33020000Y-38100000D03*
%TO.P,J1,7*%
%TO.N,Net-(J1-Pad7)*%
X35560000Y-40640000D03*
%TO.P,J1,24*%
%TO.N,Net-(J1-Pad24)*%
X33020000Y-40640000D03*
%TO.P,J1,8*%
%TO.N,Net-(J1-Pad8)*%
X35560000Y-43180000D03*
%TO.P,J1,23*%
%TO.N,GND*%
X33020000Y-43180000D03*
%TO.P,J1,9*%
%TO.N,Net-(J1-Pad9)*%
X35560000Y-45720000D03*
%TO.P,J1,22*%
%TO.N,Net-(J1-Pad22)*%
X33020000Y-45720000D03*
%TO.P,J1,10*%
%TO.N,/ETH2_1_P*%
X35560000Y-48260000D03*
%TO.P,J1,21*%
%TO.N,/ETH2_3_P*%
X33020000Y-48260000D03*
%TO.P,J1,11*%
%TO.N,/ETH2_1_N*%
X35560000Y-50800000D03*
%TO.P,J1,20*%
%TO.N,/ETH2_3_N*%
X33020000Y-50800000D03*
%TO.P,J1,12*%
%TO.N,/ETH2_2_N*%
X35560000Y-53340000D03*
%TO.P,J1,19*%
%TO.N,/ETH2_4_N*%
X33020000Y-53340000D03*
%TO.P,J1,13*%
%TO.N,/ETH2_2_P*%
X35560000Y-55880000D03*
%TO.P,J1,18*%
%TO.N,/ETH2_4_P*%
X33020000Y-55880000D03*
%TO.P,J1,14*%
%TO.N,GND*%
X35560000Y-58420000D03*
%TO.P,J1,17*%
X33020000Y-58420000D03*
%TO.P,J1,15*%
%TO.N,Net-(J1-Pad15)*%
X35560000Y-60960000D03*
%TO.P,J1,16*%
%TO.N,Net-(J1-Pad16)*%
X33020000Y-60960000D03*
%TD*%
D15*
%TO.N,GND*%
X46736000Y-43180000D03*
X46736000Y-42164000D03*
X46736000Y-41148000D03*
X46736000Y-44196000D03*
X46736000Y-45212000D03*
X40132000Y-32385000D03*
X40132000Y-55245000D03*
X37338000Y-37211000D03*
X37338000Y-39370000D03*
X37338000Y-41910000D03*
X42926000Y-58801000D03*
X42037000Y-58801000D03*
X43815000Y-58775600D03*
X42037000Y-61849000D03*
X42926000Y-61849000D03*
X43815000Y-61849000D03*
%TO.N,Earth*%
X54610000Y-41148000D03*
X66040000Y-43180000D03*
X54610000Y-43180000D03*
X54610000Y-42164000D03*
X54610000Y-45212000D03*
X54610000Y-44196000D03*
X66040000Y-41148000D03*
X66040000Y-39116000D03*
X66040000Y-37084000D03*
X66040000Y-35052000D03*
X66040000Y-33020000D03*
X66040000Y-30988000D03*
X66040000Y-28956000D03*
X66040000Y-26924000D03*
X66040000Y-24892000D03*
X66040000Y-22860000D03*
X66040000Y-45212000D03*
X66040000Y-47244000D03*
X66040000Y-49276000D03*
X66040000Y-51308000D03*
X66040000Y-53340000D03*
X66040000Y-55372000D03*
X66040000Y-57404000D03*
X66040000Y-59436000D03*
X66040000Y-61468000D03*
X66040000Y-63500000D03*
%TO.N,/ETH1_3_N*%
X37909500Y-29400500D03*
%TO.N,/ETH1_3_P*%
X38544500Y-30035500D03*
%TO.N,/ETH2_4_P*%
X37084000Y-47688500D03*
%TD*%
D16*
%TO.N,/ETH1_3_N*%
X36512500Y-29210000D02*
X34290000Y-29210000D01*
X34290000Y-29210000D02*
X33020000Y-30480000D01*
X36703000Y-29400500D02*
X36512500Y-29210000D01*
X37909500Y-29400500D02*
X36703000Y-29400500D01*
%TO.N,/ETH1_3_P*%
X34290000Y-31750000D02*
X34163000Y-31877000D01*
X36830000Y-31750000D02*
X34290000Y-31750000D01*
X34163000Y-31877000D02*
X33020000Y-33020000D01*
X38544500Y-30035500D02*
X36830000Y-31750000D01*
%TO.N,/ETH2_4_P*%
X37084000Y-47688500D02*
X36385500Y-46990000D01*
X33020000Y-55880000D02*
X31686500Y-54546500D01*
X31686500Y-54546500D02*
X31686500Y-47625000D01*
X32321500Y-46990000D02*
X35179000Y-46990000D01*
X31686500Y-47625000D02*
X32321500Y-46990000D01*
X36385500Y-46990000D02*
X35179000Y-46990000D01*
%TO.N,/ETH2_1_N*%
X47561500Y-61595000D02*
X49530000Y-59626500D01*
X46418500Y-61595000D02*
X47561500Y-61595000D01*
X49530000Y-59626500D02*
X49530000Y-59055000D01*
X45656500Y-60833000D02*
X46418500Y-61595000D01*
X40513000Y-60833000D02*
X45656500Y-60833000D01*
X36766500Y-57086500D02*
X40513000Y-60833000D01*
X36766500Y-52006500D02*
X36766500Y-57086500D01*
X35560000Y-50800000D02*
X36766500Y-52006500D01*
%TO.N,/ETH2_1_P*%
X40703500Y-60325000D02*
X46990000Y-60325000D01*
X37211000Y-56832500D02*
X40703500Y-60325000D01*
X37211000Y-49911000D02*
X37211000Y-56832500D01*
X35560000Y-48260000D02*
X37211000Y-49911000D01*
%TD*%
%TA.AperFunction,Conductor*%
%TO.N,Earth*%
G36*
X52637636Y-22028002D02*
G01*
X52684129Y-22081658D01*
X52694233Y-22151932D01*
X52664739Y-22216512D01*
X52605013Y-22254896D01*
X52586506Y-22258849D01*
X52468097Y-22274964D01*
X52458978Y-22276902D01*
X52217098Y-22347404D01*
X52208367Y-22350667D01*
X51979558Y-22456151D01*
X51971406Y-22460670D01*
X51792353Y-22578062D01*
X51783216Y-22588803D01*
X51787789Y-22598579D01*
X52817188Y-23627978D01*
X52831132Y-23635592D01*
X52832965Y-23635461D01*
X52839580Y-23631210D01*
X53868419Y-22602371D01*
X53874803Y-22590681D01*
X53865391Y-22578570D01*
X53728593Y-22483670D01*
X53720565Y-22478942D01*
X53494593Y-22367505D01*
X53485960Y-22364017D01*
X53245998Y-22287205D01*
X53236938Y-22285029D01*
X53073197Y-22258362D01*
X53009178Y-22227670D01*
X52971914Y-22167238D01*
X52973238Y-22096254D01*
X53012728Y-22037254D01*
X53077848Y-22008970D01*
X53093451Y-22008000D01*
X66366000Y-22008000D01*
X66434121Y-22028002D01*
X66480614Y-22081658D01*
X66492000Y-22134000D01*
X66492000Y-64366000D01*
X66471998Y-64434121D01*
X66418342Y-64480614D01*
X66366000Y-64492000D01*
X51376000Y-64492000D01*
X51307879Y-64471998D01*
X51261386Y-64418342D01*
X51250000Y-64366000D01*
X51250000Y-63769133D01*
X51785612Y-63769133D01*
X51794325Y-63780653D01*
X51892018Y-63852284D01*
X51899928Y-63857227D01*
X52122890Y-63974533D01*
X52131453Y-63978256D01*
X52369304Y-64061318D01*
X52378313Y-64063732D01*
X52625842Y-64110727D01*
X52635098Y-64111781D01*
X52886857Y-64121673D01*
X52896171Y-64121347D01*
X53146615Y-64093920D01*
X53155792Y-64092219D01*
X53399431Y-64028074D01*
X53408251Y-64025037D01*
X53639736Y-63925583D01*
X53648008Y-63921276D01*
X53862249Y-63788700D01*
X53869188Y-63783658D01*
X53877518Y-63771019D01*
X53871456Y-63760666D01*
X52842812Y-62732022D01*
X52828868Y-62724408D01*
X52827035Y-62724539D01*
X52820420Y-62728790D01*
X51792270Y-63756940D01*
X51785612Y-63769133D01*
X51250000Y-63769133D01*
X51250000Y-63528424D01*
X51270002Y-63460303D01*
X51323658Y-63413810D01*
X51385095Y-63404977D01*
X51385250Y-63402840D01*
X51419120Y-63405303D01*
X51433123Y-63397667D01*
X52457978Y-62372812D01*
X52465592Y-62358868D01*
X52465461Y-62357035D01*
X52461210Y-62350420D01*
X51431321Y-61320531D01*
X51417377Y-61312917D01*
X51384989Y-61315233D01*
X51315615Y-61300142D01*
X51265413Y-61249940D01*
X51250000Y-61189554D01*
X51250000Y-60948803D01*
X51783216Y-60948803D01*
X51787789Y-60958579D01*
X54229913Y-63400703D01*
X54242293Y-63407463D01*
X54250634Y-63401219D01*
X54376765Y-63205127D01*
X54381212Y-63196936D01*
X54484691Y-62967222D01*
X54487882Y-62958455D01*
X54556269Y-62715976D01*
X54558129Y-62706834D01*
X54590116Y-62455396D01*
X54590597Y-62449108D01*
X54592847Y-62363160D01*
X54592696Y-62356851D01*
X54584252Y-62243227D01*
X54599151Y-62173811D01*
X54649214Y-62123470D01*
X54718545Y-62108186D01*
X54768865Y-62122535D01*
X55020392Y-62255712D01*
X55098160Y-62284171D01*
X55279194Y-62350420D01*
X55290373Y-62354511D01*
X55571264Y-62415755D01*
X55599841Y-62418004D01*
X55794282Y-62433307D01*
X55794291Y-62433307D01*
X55796739Y-62433500D01*
X55952271Y-62433500D01*
X55954407Y-62433354D01*
X55954418Y-62433354D01*
X56162548Y-62419165D01*
X56162554Y-62419164D01*
X56166825Y-62418873D01*
X56171020Y-62418004D01*
X56171022Y-62418004D01*
X56307584Y-62389723D01*
X56448342Y-62360574D01*
X56719343Y-62264607D01*
X56974812Y-62132750D01*
X56978313Y-62130289D01*
X56978317Y-62130287D01*
X57105802Y-62040689D01*
X57210023Y-61967441D01*
X57331437Y-61854616D01*
X57417479Y-61774661D01*
X57417481Y-61774658D01*
X57420622Y-61771740D01*
X57602713Y-61549268D01*
X57752927Y-61304142D01*
X57795704Y-61206695D01*
X59417251Y-61206695D01*
X59417548Y-61211848D01*
X59417548Y-61211851D01*
X59429812Y-61424547D01*
X59430110Y-61429715D01*
X59431247Y-61434761D01*
X59431248Y-61434767D01*
X59451119Y-61522939D01*
X59479222Y-61647639D01*
X59563266Y-61854616D01*
X59679987Y-62045088D01*
X59826250Y-62213938D01*
X59889005Y-62266038D01*
X59993795Y-62353036D01*
X59998126Y-62356632D01*
X60191000Y-62469338D01*
X60399692Y-62549030D01*
X60404760Y-62550061D01*
X60404763Y-62550062D01*
X60512017Y-62571883D01*
X60618597Y-62593567D01*
X60623772Y-62593757D01*
X60623774Y-62593757D01*
X60836673Y-62601564D01*
X60836677Y-62601564D01*
X60841837Y-62601753D01*
X60846957Y-62601097D01*
X60846959Y-62601097D01*
X61058288Y-62574025D01*
X61058289Y-62574025D01*
X61063416Y-62573368D01*
X61068366Y-62571883D01*
X61272429Y-62510661D01*
X61272434Y-62510659D01*
X61277384Y-62509174D01*
X61477994Y-62410896D01*
X61659860Y-62281173D01*
X61818096Y-62123489D01*
X61877594Y-62040689D01*
X61945435Y-61946277D01*
X61948453Y-61942077D01*
X62047430Y-61741811D01*
X62105929Y-61549268D01*
X62110865Y-61533023D01*
X62110865Y-61533021D01*
X62112370Y-61528069D01*
X62141529Y-61306590D01*
X62143156Y-61240000D01*
X62124852Y-61017361D01*
X62070431Y-60800702D01*
X61981354Y-60595840D01*
X61891989Y-60457703D01*
X61862822Y-60412617D01*
X61862820Y-60412614D01*
X61860014Y-60408277D01*
X61709670Y-60243051D01*
X61705619Y-60239852D01*
X61705615Y-60239848D01*
X61538414Y-60107800D01*
X61538410Y-60107798D01*
X61534359Y-60104598D01*
X61493053Y-60081796D01*
X61443084Y-60031364D01*
X61428312Y-59961921D01*
X61453428Y-59895516D01*
X61480780Y-59868909D01*
X61524603Y-59837650D01*
X61659860Y-59741173D01*
X61818096Y-59583489D01*
X61877594Y-59500689D01*
X61945435Y-59406277D01*
X61948453Y-59402077D01*
X61964566Y-59369476D01*
X62045136Y-59206453D01*
X62045137Y-59206451D01*
X62047430Y-59201811D01*
X62112370Y-58988069D01*
X62141529Y-58766590D01*
X62143156Y-58700000D01*
X62124852Y-58477361D01*
X62070431Y-58260702D01*
X61981354Y-58055840D01*
X61860014Y-57868277D01*
X61709670Y-57703051D01*
X61705619Y-57699852D01*
X61705615Y-57699848D01*
X61538414Y-57567800D01*
X61538410Y-57567798D01*
X61534359Y-57564598D01*
X61338789Y-57456638D01*
X61333920Y-57454914D01*
X61333916Y-57454912D01*
X61133087Y-57383795D01*
X61133083Y-57383794D01*
X61128212Y-57382069D01*
X61123119Y-57381162D01*
X61123116Y-57381161D01*
X60913373Y-57343800D01*
X60913367Y-57343799D01*
X60908284Y-57342894D01*
X60834452Y-57341992D01*
X60690081Y-57340228D01*
X60690079Y-57340228D01*
X60684911Y-57340165D01*
X60464091Y-57373955D01*
X60251756Y-57443357D01*
X60053607Y-57546507D01*
X60049474Y-57549610D01*
X60049471Y-57549612D01*
X60025247Y-57567800D01*
X59874965Y-57680635D01*
X59720629Y-57842138D01*
X59594743Y-58026680D01*
X59500688Y-58229305D01*
X59440989Y-58444570D01*
X59417251Y-58666695D01*
X59417548Y-58671848D01*
X59417548Y-58671851D01*
X59429641Y-58881579D01*
X59430110Y-58889715D01*
X59431247Y-58894761D01*
X59431248Y-58894767D01*
X59431935Y-58897814D01*
X59479222Y-59107639D01*
X59563266Y-59314616D01*
X59679987Y-59505088D01*
X59826250Y-59673938D01*
X59998126Y-59816632D01*
X60068595Y-59857811D01*
X60071445Y-59859476D01*
X60120169Y-59911114D01*
X60133240Y-59980897D01*
X60106509Y-60046669D01*
X60066055Y-60080027D01*
X60053607Y-60086507D01*
X60049474Y-60089610D01*
X60049471Y-60089612D01*
X59906999Y-60196583D01*
X59874965Y-60220635D01*
X59720629Y-60382138D01*
X59594743Y-60566680D01*
X59577551Y-60603717D01*
X59519717Y-60728311D01*
X59500688Y-60769305D01*
X59440989Y-60984570D01*
X59417251Y-61206695D01*
X57795704Y-61206695D01*
X57797957Y-61201562D01*
X57866757Y-61044830D01*
X57868483Y-61040898D01*
X57884529Y-60984570D01*
X57946068Y-60768534D01*
X57947244Y-60764406D01*
X57987751Y-60479784D01*
X57987845Y-60461951D01*
X57989235Y-60196583D01*
X57989235Y-60196576D01*
X57989257Y-60192297D01*
X57975330Y-60086507D01*
X57963498Y-59996638D01*
X57951732Y-59907266D01*
X57875871Y-59629964D01*
X57780460Y-59406277D01*
X57764763Y-59369476D01*
X57764761Y-59369472D01*
X57763077Y-59365524D01*
X57615439Y-59118839D01*
X57435687Y-58894472D01*
X57227149Y-58696577D01*
X56993683Y-58528814D01*
X56971843Y-58517250D01*
X56844276Y-58449707D01*
X56739608Y-58394288D01*
X56469627Y-58295489D01*
X56188736Y-58234245D01*
X56157685Y-58231801D01*
X55965718Y-58216693D01*
X55965709Y-58216693D01*
X55963261Y-58216500D01*
X55807729Y-58216500D01*
X55805593Y-58216646D01*
X55805582Y-58216646D01*
X55597452Y-58230835D01*
X55597446Y-58230836D01*
X55593175Y-58231127D01*
X55588980Y-58231996D01*
X55588978Y-58231996D01*
X55473289Y-58255954D01*
X55311658Y-58289426D01*
X55040657Y-58385393D01*
X54785188Y-58517250D01*
X54781687Y-58519711D01*
X54781683Y-58519713D01*
X54771594Y-58526804D01*
X54549977Y-58682559D01*
X54339378Y-58878260D01*
X54157287Y-59100732D01*
X54007073Y-59345858D01*
X53891517Y-59609102D01*
X53812756Y-59885594D01*
X53772249Y-60170216D01*
X53772227Y-60174505D01*
X53772226Y-60174512D01*
X53770979Y-60412617D01*
X53770743Y-60457703D01*
X53771302Y-60461947D01*
X53771302Y-60461951D01*
X53797134Y-60658163D01*
X53786195Y-60728311D01*
X53739067Y-60781410D01*
X53670713Y-60800600D01*
X53616484Y-60787615D01*
X53494593Y-60727505D01*
X53485960Y-60724017D01*
X53245998Y-60647205D01*
X53236938Y-60645029D01*
X52988260Y-60604529D01*
X52978973Y-60603717D01*
X52727053Y-60600419D01*
X52717742Y-60600989D01*
X52468097Y-60634964D01*
X52458978Y-60636902D01*
X52217098Y-60707404D01*
X52208367Y-60710667D01*
X51979558Y-60816151D01*
X51971406Y-60820670D01*
X51792353Y-60938062D01*
X51783216Y-60948803D01*
X51250000Y-60948803D01*
X51250000Y-48269133D01*
X51785612Y-48269133D01*
X51794325Y-48280653D01*
X51892018Y-48352284D01*
X51899928Y-48357227D01*
X52122890Y-48474533D01*
X52131453Y-48478256D01*
X52369304Y-48561318D01*
X52378313Y-48563732D01*
X52625842Y-48610727D01*
X52635098Y-48611781D01*
X52886857Y-48621673D01*
X52896171Y-48621347D01*
X53146615Y-48593920D01*
X53155792Y-48592219D01*
X53399431Y-48528074D01*
X53408251Y-48525037D01*
X53622489Y-48432993D01*
X53692974Y-48424481D01*
X53756871Y-48455426D01*
X53793895Y-48516005D01*
X53796970Y-48566514D01*
X53779926Y-48686277D01*
X53772249Y-48740216D01*
X53772227Y-48744505D01*
X53772226Y-48744512D01*
X53771129Y-48953938D01*
X53770743Y-49027703D01*
X53771302Y-49031947D01*
X53771302Y-49031951D01*
X53779818Y-49096632D01*
X53808268Y-49312734D01*
X53884129Y-49590036D01*
X53885813Y-49593984D01*
X53993598Y-49846680D01*
X53996923Y-49854476D01*
X54007107Y-49871492D01*
X54135320Y-50085720D01*
X54144561Y-50101161D01*
X54324313Y-50325528D01*
X54341397Y-50341740D01*
X54525710Y-50516646D01*
X54532851Y-50523423D01*
X54766317Y-50691186D01*
X54770112Y-50693195D01*
X54770113Y-50693196D01*
X54791551Y-50704547D01*
X55020392Y-50825712D01*
X55290373Y-50924511D01*
X55571264Y-50985755D01*
X55599841Y-50988004D01*
X55794282Y-51003307D01*
X55794291Y-51003307D01*
X55796739Y-51003500D01*
X55952271Y-51003500D01*
X55954407Y-51003354D01*
X55954418Y-51003354D01*
X56162548Y-50989165D01*
X56162554Y-50989164D01*
X56166825Y-50988873D01*
X56171020Y-50988004D01*
X56171022Y-50988004D01*
X56307583Y-50959724D01*
X56448342Y-50930574D01*
X56719343Y-50834607D01*
X56807362Y-50789177D01*
X56971005Y-50704715D01*
X56971006Y-50704715D01*
X56974812Y-50702750D01*
X56978313Y-50700289D01*
X56978317Y-50700287D01*
X57140091Y-50586590D01*
X57210023Y-50537441D01*
X57264632Y-50486695D01*
X59417251Y-50486695D01*
X59417548Y-50491848D01*
X59417548Y-50491851D01*
X59423011Y-50586590D01*
X59430110Y-50709715D01*
X59431247Y-50714761D01*
X59431248Y-50714767D01*
X59451119Y-50802939D01*
X59479222Y-50927639D01*
X59563266Y-51134616D01*
X59679987Y-51325088D01*
X59826250Y-51493938D01*
X59998126Y-51636632D01*
X60191000Y-51749338D01*
X60399692Y-51829030D01*
X60404760Y-51830061D01*
X60404763Y-51830062D01*
X60512017Y-51851883D01*
X60618597Y-51873567D01*
X60623772Y-51873757D01*
X60623774Y-51873757D01*
X60836673Y-51881564D01*
X60836677Y-51881564D01*
X60841837Y-51881753D01*
X60846957Y-51881097D01*
X60846959Y-51881097D01*
X61058288Y-51854025D01*
X61058289Y-51854025D01*
X61063416Y-51853368D01*
X61068366Y-51851883D01*
X61272429Y-51790661D01*
X61272434Y-51790659D01*
X61277384Y-51789174D01*
X61477994Y-51690896D01*
X61659860Y-51561173D01*
X61818096Y-51403489D01*
X61877594Y-51320689D01*
X61945435Y-51226277D01*
X61948453Y-51222077D01*
X62047430Y-51021811D01*
X62104307Y-50834607D01*
X62110865Y-50813023D01*
X62110865Y-50813021D01*
X62112370Y-50808069D01*
X62141529Y-50586590D01*
X62143011Y-50525926D01*
X62143074Y-50523365D01*
X62143074Y-50523361D01*
X62143156Y-50520000D01*
X62124852Y-50297361D01*
X62070431Y-50080702D01*
X61981354Y-49875840D01*
X61860014Y-49688277D01*
X61709670Y-49523051D01*
X61705619Y-49519852D01*
X61705615Y-49519848D01*
X61538414Y-49387800D01*
X61538410Y-49387798D01*
X61534359Y-49384598D01*
X61493053Y-49361796D01*
X61443084Y-49311364D01*
X61428312Y-49241921D01*
X61453428Y-49175516D01*
X61480780Y-49148909D01*
X61524603Y-49117650D01*
X61659860Y-49021173D01*
X61818096Y-48863489D01*
X61877594Y-48780689D01*
X61945435Y-48686277D01*
X61948453Y-48682077D01*
X61978307Y-48621673D01*
X62045136Y-48486453D01*
X62045137Y-48486451D01*
X62047430Y-48481811D01*
X62112370Y-48268069D01*
X62141529Y-48046590D01*
X62143156Y-47980000D01*
X62124852Y-47757361D01*
X62070431Y-47540702D01*
X61981354Y-47335840D01*
X61936546Y-47266577D01*
X61862822Y-47152617D01*
X61862820Y-47152614D01*
X61860014Y-47148277D01*
X61709670Y-46983051D01*
X61705619Y-46979852D01*
X61705615Y-46979848D01*
X61538414Y-46847800D01*
X61538410Y-46847798D01*
X61534359Y-46844598D01*
X61338789Y-46736638D01*
X61333920Y-46734914D01*
X61333916Y-46734912D01*
X61133087Y-46663795D01*
X61133083Y-46663794D01*
X61128212Y-46662069D01*
X61123119Y-46661162D01*
X61123116Y-46661161D01*
X60913373Y-46623800D01*
X60913367Y-46623799D01*
X60908284Y-46622894D01*
X60834452Y-46621992D01*
X60690081Y-46620228D01*
X60690079Y-46620228D01*
X60684911Y-46620165D01*
X60464091Y-46653955D01*
X60251756Y-46723357D01*
X60053607Y-46826507D01*
X60049474Y-46829610D01*
X60049471Y-46829612D01*
X59881925Y-46955409D01*
X59874965Y-46960635D01*
X59720629Y-47122138D01*
X59594743Y-47306680D01*
X59579003Y-47340590D01*
X59522867Y-47461525D01*
X59500688Y-47509305D01*
X59440989Y-47724570D01*
X59417251Y-47946695D01*
X59417548Y-47951848D01*
X59417548Y-47951851D01*
X59423011Y-48046590D01*
X59430110Y-48169715D01*
X59431247Y-48174761D01*
X59431248Y-48174767D01*
X59449767Y-48256940D01*
X59479222Y-48387639D01*
X59563266Y-48594616D01*
X59614019Y-48677438D01*
X59666021Y-48762297D01*
X59679987Y-48785088D01*
X59826250Y-48953938D01*
X59998126Y-49096632D01*
X60068595Y-49137811D01*
X60071445Y-49139476D01*
X60120169Y-49191114D01*
X60133240Y-49260897D01*
X60106509Y-49326669D01*
X60066055Y-49360027D01*
X60053607Y-49366507D01*
X60049474Y-49369610D01*
X60049471Y-49369612D01*
X60025247Y-49387800D01*
X59874965Y-49500635D01*
X59871393Y-49504373D01*
X59785759Y-49593984D01*
X59720629Y-49662138D01*
X59594743Y-49846680D01*
X59500688Y-50049305D01*
X59440989Y-50264570D01*
X59417251Y-50486695D01*
X57264632Y-50486695D01*
X57420622Y-50341740D01*
X57602713Y-50119268D01*
X57752927Y-49874142D01*
X57868483Y-49610898D01*
X57947244Y-49334406D01*
X57987751Y-49049784D01*
X57987845Y-49031951D01*
X57989235Y-48766583D01*
X57989235Y-48766576D01*
X57989257Y-48762297D01*
X57951732Y-48477266D01*
X57875871Y-48199964D01*
X57809022Y-48043240D01*
X57764763Y-47939476D01*
X57764761Y-47939472D01*
X57763077Y-47935524D01*
X57688527Y-47810960D01*
X57617643Y-47692521D01*
X57617640Y-47692517D01*
X57615439Y-47688839D01*
X57435687Y-47464472D01*
X57312289Y-47347372D01*
X57230258Y-47269527D01*
X57230255Y-47269525D01*
X57227149Y-47266577D01*
X56993683Y-47098814D01*
X56971843Y-47087250D01*
X56948654Y-47074972D01*
X56739608Y-46964288D01*
X56469627Y-46865489D01*
X56188736Y-46804245D01*
X56157685Y-46801801D01*
X55965718Y-46786693D01*
X55965709Y-46786693D01*
X55963261Y-46786500D01*
X55807729Y-46786500D01*
X55805593Y-46786646D01*
X55805582Y-46786646D01*
X55597452Y-46800835D01*
X55597446Y-46800836D01*
X55593175Y-46801127D01*
X55588980Y-46801996D01*
X55588978Y-46801996D01*
X55482155Y-46824118D01*
X55311658Y-46859426D01*
X55040657Y-46955393D01*
X54785188Y-47087250D01*
X54781675Y-47089719D01*
X54778805Y-47091457D01*
X54710175Y-47109636D01*
X54642612Y-47087826D01*
X54597565Y-47032950D01*
X54588541Y-46967778D01*
X54590115Y-46955409D01*
X54590597Y-46949108D01*
X54592847Y-46863160D01*
X54592696Y-46856851D01*
X54573912Y-46604074D01*
X54572536Y-46594868D01*
X54516929Y-46349126D01*
X54514205Y-46340215D01*
X54422888Y-46105392D01*
X54418877Y-46096983D01*
X54293854Y-45878240D01*
X54288643Y-45870514D01*
X54251391Y-45823261D01*
X54239466Y-45814790D01*
X54227934Y-45821276D01*
X51792270Y-48256940D01*
X51785612Y-48269133D01*
X51250000Y-48269133D01*
X51250000Y-48028424D01*
X51270002Y-47960303D01*
X51323658Y-47913810D01*
X51385095Y-47904977D01*
X51385250Y-47902840D01*
X51419120Y-47905303D01*
X51433123Y-47897667D01*
X52457978Y-46872812D01*
X52465592Y-46858868D01*
X52465461Y-46857035D01*
X52461210Y-46850420D01*
X51431321Y-45820531D01*
X51417377Y-45812917D01*
X51384989Y-45815233D01*
X51315615Y-45800142D01*
X51265413Y-45749940D01*
X51250000Y-45689554D01*
X51250000Y-45448803D01*
X51783216Y-45448803D01*
X51787789Y-45458579D01*
X52817188Y-46487978D01*
X52831132Y-46495592D01*
X52832965Y-46495461D01*
X52839580Y-46491210D01*
X53868419Y-45462371D01*
X53874803Y-45450681D01*
X53865391Y-45438570D01*
X53728593Y-45343670D01*
X53720565Y-45338942D01*
X53494593Y-45227505D01*
X53485960Y-45224017D01*
X53245998Y-45147205D01*
X53236938Y-45145029D01*
X52988260Y-45104529D01*
X52978973Y-45103717D01*
X52727053Y-45100419D01*
X52717742Y-45100989D01*
X52468097Y-45134964D01*
X52458978Y-45136902D01*
X52217098Y-45207404D01*
X52208367Y-45210667D01*
X51979558Y-45316151D01*
X51971406Y-45320670D01*
X51792353Y-45438062D01*
X51783216Y-45448803D01*
X51250000Y-45448803D01*
X51250000Y-40909133D01*
X51785612Y-40909133D01*
X51794325Y-40920653D01*
X51892018Y-40992284D01*
X51899928Y-40997227D01*
X52122890Y-41114533D01*
X52131453Y-41118256D01*
X52369304Y-41201318D01*
X52378313Y-41203732D01*
X52625842Y-41250727D01*
X52635098Y-41251781D01*
X52886857Y-41261673D01*
X52896171Y-41261347D01*
X53146615Y-41233920D01*
X53155792Y-41232219D01*
X53399431Y-41168074D01*
X53408251Y-41165037D01*
X53639736Y-41065583D01*
X53648008Y-41061276D01*
X53862249Y-40928700D01*
X53869188Y-40923658D01*
X53877518Y-40911019D01*
X53871456Y-40900666D01*
X52842812Y-39872022D01*
X52828868Y-39864408D01*
X52827035Y-39864539D01*
X52820420Y-39868790D01*
X51792270Y-40896940D01*
X51785612Y-40909133D01*
X51250000Y-40909133D01*
X51250000Y-40668424D01*
X51270002Y-40600303D01*
X51323658Y-40553810D01*
X51385095Y-40544977D01*
X51385250Y-40542840D01*
X51419120Y-40545303D01*
X51433123Y-40537667D01*
X52457978Y-39512812D01*
X52465592Y-39498868D01*
X52465461Y-39497035D01*
X52461210Y-39490420D01*
X51431321Y-38460531D01*
X51417377Y-38452917D01*
X51384989Y-38455233D01*
X51315615Y-38440142D01*
X51265413Y-38389940D01*
X51250000Y-38329554D01*
X51250000Y-38088803D01*
X51783216Y-38088803D01*
X51787789Y-38098579D01*
X54229913Y-40540703D01*
X54242293Y-40547463D01*
X54250634Y-40541219D01*
X54376765Y-40345127D01*
X54381212Y-40336936D01*
X54484691Y-40107222D01*
X54487882Y-40098455D01*
X54556269Y-39855976D01*
X54558129Y-39846834D01*
X54590116Y-39595396D01*
X54590597Y-39589108D01*
X54592847Y-39503160D01*
X54592696Y-39496851D01*
X54584252Y-39383227D01*
X54599151Y-39313811D01*
X54649214Y-39263470D01*
X54718545Y-39248186D01*
X54768865Y-39262535D01*
X55020392Y-39395712D01*
X55098160Y-39424171D01*
X55279194Y-39490420D01*
X55290373Y-39494511D01*
X55571264Y-39555755D01*
X55599841Y-39558004D01*
X55794282Y-39573307D01*
X55794291Y-39573307D01*
X55796739Y-39573500D01*
X55952271Y-39573500D01*
X55954407Y-39573354D01*
X55954418Y-39573354D01*
X56162548Y-39559165D01*
X56162554Y-39559164D01*
X56166825Y-39558873D01*
X56171020Y-39558004D01*
X56171022Y-39558004D01*
X56307584Y-39529723D01*
X56448342Y-39500574D01*
X56719343Y-39404607D01*
X56974812Y-39272750D01*
X56978313Y-39270289D01*
X56978317Y-39270287D01*
X57105802Y-39180689D01*
X57210023Y-39107441D01*
X57331437Y-38994616D01*
X57417479Y-38914661D01*
X57417481Y-38914658D01*
X57420622Y-38911740D01*
X57602713Y-38689268D01*
X57752927Y-38444142D01*
X57795704Y-38346695D01*
X59417251Y-38346695D01*
X59417548Y-38351848D01*
X59417548Y-38351851D01*
X59429812Y-38564547D01*
X59430110Y-38569715D01*
X59431247Y-38574761D01*
X59431248Y-38574767D01*
X59451119Y-38662939D01*
X59479222Y-38787639D01*
X59563266Y-38994616D01*
X59679987Y-39185088D01*
X59826250Y-39353938D01*
X59889005Y-39406038D01*
X59993795Y-39493036D01*
X59998126Y-39496632D01*
X60191000Y-39609338D01*
X60399692Y-39689030D01*
X60404760Y-39690061D01*
X60404763Y-39690062D01*
X60512017Y-39711883D01*
X60618597Y-39733567D01*
X60623772Y-39733757D01*
X60623774Y-39733757D01*
X60836673Y-39741564D01*
X60836677Y-39741564D01*
X60841837Y-39741753D01*
X60846957Y-39741097D01*
X60846959Y-39741097D01*
X61058288Y-39714025D01*
X61058289Y-39714025D01*
X61063416Y-39713368D01*
X61068366Y-39711883D01*
X61272429Y-39650661D01*
X61272434Y-39650659D01*
X61277384Y-39649174D01*
X61477994Y-39550896D01*
X61659860Y-39421173D01*
X61818096Y-39263489D01*
X61877594Y-39180689D01*
X61945435Y-39086277D01*
X61948453Y-39082077D01*
X62047430Y-38881811D01*
X62105929Y-38689268D01*
X62110865Y-38673023D01*
X62110865Y-38673021D01*
X62112370Y-38668069D01*
X62141529Y-38446590D01*
X62143156Y-38380000D01*
X62124852Y-38157361D01*
X62070431Y-37940702D01*
X61981354Y-37735840D01*
X61891989Y-37597703D01*
X61862822Y-37552617D01*
X61862820Y-37552614D01*
X61860014Y-37548277D01*
X61709670Y-37383051D01*
X61705619Y-37379852D01*
X61705615Y-37379848D01*
X61538414Y-37247800D01*
X61538410Y-37247798D01*
X61534359Y-37244598D01*
X61493053Y-37221796D01*
X61443084Y-37171364D01*
X61428312Y-37101921D01*
X61453428Y-37035516D01*
X61480780Y-37008909D01*
X61524603Y-36977650D01*
X61659860Y-36881173D01*
X61818096Y-36723489D01*
X61877594Y-36640689D01*
X61945435Y-36546277D01*
X61948453Y-36542077D01*
X61964566Y-36509476D01*
X62045136Y-36346453D01*
X62045137Y-36346451D01*
X62047430Y-36341811D01*
X62112370Y-36128069D01*
X62141529Y-35906590D01*
X62143156Y-35840000D01*
X62124852Y-35617361D01*
X62070431Y-35400702D01*
X61981354Y-35195840D01*
X61860014Y-35008277D01*
X61709670Y-34843051D01*
X61705619Y-34839852D01*
X61705615Y-34839848D01*
X61538414Y-34707800D01*
X61538410Y-34707798D01*
X61534359Y-34704598D01*
X61338789Y-34596638D01*
X61333920Y-34594914D01*
X61333916Y-34594912D01*
X61133087Y-34523795D01*
X61133083Y-34523794D01*
X61128212Y-34522069D01*
X61123119Y-34521162D01*
X61123116Y-34521161D01*
X60913373Y-34483800D01*
X60913367Y-34483799D01*
X60908284Y-34482894D01*
X60834452Y-34481992D01*
X60690081Y-34480228D01*
X60690079Y-34480228D01*
X60684911Y-34480165D01*
X60464091Y-34513955D01*
X60251756Y-34583357D01*
X60053607Y-34686507D01*
X60049474Y-34689610D01*
X60049471Y-34689612D01*
X60025247Y-34707800D01*
X59874965Y-34820635D01*
X59720629Y-34982138D01*
X59594743Y-35166680D01*
X59500688Y-35369305D01*
X59440989Y-35584570D01*
X59417251Y-35806695D01*
X59417548Y-35811848D01*
X59417548Y-35811851D01*
X59429641Y-36021579D01*
X59430110Y-36029715D01*
X59431247Y-36034761D01*
X59431248Y-36034767D01*
X59431935Y-36037814D01*
X59479222Y-36247639D01*
X59563266Y-36454616D01*
X59679987Y-36645088D01*
X59826250Y-36813938D01*
X59998126Y-36956632D01*
X60068595Y-36997811D01*
X60071445Y-36999476D01*
X60120169Y-37051114D01*
X60133240Y-37120897D01*
X60106509Y-37186669D01*
X60066055Y-37220027D01*
X60053607Y-37226507D01*
X60049474Y-37229610D01*
X60049471Y-37229612D01*
X59906999Y-37336583D01*
X59874965Y-37360635D01*
X59720629Y-37522138D01*
X59594743Y-37706680D01*
X59577551Y-37743717D01*
X59519717Y-37868311D01*
X59500688Y-37909305D01*
X59440989Y-38124570D01*
X59417251Y-38346695D01*
X57795704Y-38346695D01*
X57797957Y-38341562D01*
X57866757Y-38184830D01*
X57868483Y-38180898D01*
X57884529Y-38124570D01*
X57946068Y-37908534D01*
X57947244Y-37904406D01*
X57987751Y-37619784D01*
X57987845Y-37601951D01*
X57989235Y-37336583D01*
X57989235Y-37336576D01*
X57989257Y-37332297D01*
X57975330Y-37226507D01*
X57963498Y-37136638D01*
X57951732Y-37047266D01*
X57875871Y-36769964D01*
X57780460Y-36546277D01*
X57764763Y-36509476D01*
X57764761Y-36509472D01*
X57763077Y-36505524D01*
X57615439Y-36258839D01*
X57435687Y-36034472D01*
X57227149Y-35836577D01*
X56993683Y-35668814D01*
X56971843Y-35657250D01*
X56844276Y-35589707D01*
X56739608Y-35534288D01*
X56469627Y-35435489D01*
X56188736Y-35374245D01*
X56157685Y-35371801D01*
X55965718Y-35356693D01*
X55965709Y-35356693D01*
X55963261Y-35356500D01*
X55807729Y-35356500D01*
X55805593Y-35356646D01*
X55805582Y-35356646D01*
X55597452Y-35370835D01*
X55597446Y-35370836D01*
X55593175Y-35371127D01*
X55588980Y-35371996D01*
X55588978Y-35371996D01*
X55473289Y-35395954D01*
X55311658Y-35429426D01*
X55040657Y-35525393D01*
X54785188Y-35657250D01*
X54781687Y-35659711D01*
X54781683Y-35659713D01*
X54771594Y-35666804D01*
X54549977Y-35822559D01*
X54339378Y-36018260D01*
X54157287Y-36240732D01*
X54007073Y-36485858D01*
X53891517Y-36749102D01*
X53812756Y-37025594D01*
X53772249Y-37310216D01*
X53772227Y-37314505D01*
X53772226Y-37314512D01*
X53770979Y-37552617D01*
X53770743Y-37597703D01*
X53771302Y-37601947D01*
X53771302Y-37601951D01*
X53797134Y-37798163D01*
X53786195Y-37868311D01*
X53739067Y-37921410D01*
X53670713Y-37940600D01*
X53616484Y-37927615D01*
X53494593Y-37867505D01*
X53485960Y-37864017D01*
X53245998Y-37787205D01*
X53236938Y-37785029D01*
X52988260Y-37744529D01*
X52978973Y-37743717D01*
X52727053Y-37740419D01*
X52717742Y-37740989D01*
X52468097Y-37774964D01*
X52458978Y-37776902D01*
X52217098Y-37847404D01*
X52208367Y-37850667D01*
X51979558Y-37956151D01*
X51971406Y-37960670D01*
X51792353Y-38078062D01*
X51783216Y-38088803D01*
X51250000Y-38088803D01*
X51250000Y-25409133D01*
X51785612Y-25409133D01*
X51794325Y-25420653D01*
X51892018Y-25492284D01*
X51899928Y-25497227D01*
X52122890Y-25614533D01*
X52131453Y-25618256D01*
X52369304Y-25701318D01*
X52378313Y-25703732D01*
X52625842Y-25750727D01*
X52635098Y-25751781D01*
X52886857Y-25761673D01*
X52896171Y-25761347D01*
X53146615Y-25733920D01*
X53155792Y-25732219D01*
X53399431Y-25668074D01*
X53408251Y-25665037D01*
X53622489Y-25572993D01*
X53692974Y-25564481D01*
X53756871Y-25595426D01*
X53793895Y-25656005D01*
X53796970Y-25706514D01*
X53779926Y-25826277D01*
X53772249Y-25880216D01*
X53772227Y-25884505D01*
X53772226Y-25884512D01*
X53771129Y-26093938D01*
X53770743Y-26167703D01*
X53771302Y-26171947D01*
X53771302Y-26171951D01*
X53779818Y-26236632D01*
X53808268Y-26452734D01*
X53884129Y-26730036D01*
X53885813Y-26733984D01*
X53993598Y-26986680D01*
X53996923Y-26994476D01*
X54007107Y-27011492D01*
X54135320Y-27225720D01*
X54144561Y-27241161D01*
X54324313Y-27465528D01*
X54341397Y-27481740D01*
X54525710Y-27656646D01*
X54532851Y-27663423D01*
X54766317Y-27831186D01*
X54770112Y-27833195D01*
X54770113Y-27833196D01*
X54791551Y-27844547D01*
X55020392Y-27965712D01*
X55290373Y-28064511D01*
X55571264Y-28125755D01*
X55599841Y-28128004D01*
X55794282Y-28143307D01*
X55794291Y-28143307D01*
X55796739Y-28143500D01*
X55952271Y-28143500D01*
X55954407Y-28143354D01*
X55954418Y-28143354D01*
X56162548Y-28129165D01*
X56162554Y-28129164D01*
X56166825Y-28128873D01*
X56171020Y-28128004D01*
X56171022Y-28128004D01*
X56307584Y-28099723D01*
X56448342Y-28070574D01*
X56719343Y-27974607D01*
X56807362Y-27929177D01*
X56971005Y-27844715D01*
X56971006Y-27844715D01*
X56974812Y-27842750D01*
X56978313Y-27840289D01*
X56978317Y-27840287D01*
X57140091Y-27726590D01*
X57210023Y-27677441D01*
X57264632Y-27626695D01*
X59417251Y-27626695D01*
X59417548Y-27631848D01*
X59417548Y-27631851D01*
X59423011Y-27726590D01*
X59430110Y-27849715D01*
X59431247Y-27854761D01*
X59431248Y-27854767D01*
X59451119Y-27942939D01*
X59479222Y-28067639D01*
X59563266Y-28274616D01*
X59679987Y-28465088D01*
X59826250Y-28633938D01*
X59998126Y-28776632D01*
X60191000Y-28889338D01*
X60399692Y-28969030D01*
X60404760Y-28970061D01*
X60404763Y-28970062D01*
X60512017Y-28991883D01*
X60618597Y-29013567D01*
X60623772Y-29013757D01*
X60623774Y-29013757D01*
X60836673Y-29021564D01*
X60836677Y-29021564D01*
X60841837Y-29021753D01*
X60846957Y-29021097D01*
X60846959Y-29021097D01*
X61058288Y-28994025D01*
X61058289Y-28994025D01*
X61063416Y-28993368D01*
X61068366Y-28991883D01*
X61272429Y-28930661D01*
X61272434Y-28930659D01*
X61277384Y-28929174D01*
X61477994Y-28830896D01*
X61659860Y-28701173D01*
X61818096Y-28543489D01*
X61877594Y-28460689D01*
X61945435Y-28366277D01*
X61948453Y-28362077D01*
X62047430Y-28161811D01*
X62104307Y-27974607D01*
X62110865Y-27953023D01*
X62110865Y-27953021D01*
X62112370Y-27948069D01*
X62141529Y-27726590D01*
X62143011Y-27665926D01*
X62143074Y-27663365D01*
X62143074Y-27663361D01*
X62143156Y-27660000D01*
X62124852Y-27437361D01*
X62070431Y-27220702D01*
X61981354Y-27015840D01*
X61860014Y-26828277D01*
X61709670Y-26663051D01*
X61705619Y-26659852D01*
X61705615Y-26659848D01*
X61538414Y-26527800D01*
X61538410Y-26527798D01*
X61534359Y-26524598D01*
X61493053Y-26501796D01*
X61443084Y-26451364D01*
X61428312Y-26381921D01*
X61453428Y-26315516D01*
X61480780Y-26288909D01*
X61524603Y-26257650D01*
X61659860Y-26161173D01*
X61818096Y-26003489D01*
X61877594Y-25920689D01*
X61945435Y-25826277D01*
X61948453Y-25822077D01*
X61978307Y-25761673D01*
X62045136Y-25626453D01*
X62045137Y-25626451D01*
X62047430Y-25621811D01*
X62112370Y-25408069D01*
X62141529Y-25186590D01*
X62143156Y-25120000D01*
X62124852Y-24897361D01*
X62070431Y-24680702D01*
X61981354Y-24475840D01*
X61936546Y-24406577D01*
X61862822Y-24292617D01*
X61862820Y-24292614D01*
X61860014Y-24288277D01*
X61709670Y-24123051D01*
X61705619Y-24119852D01*
X61705615Y-24119848D01*
X61538414Y-23987800D01*
X61538410Y-23987798D01*
X61534359Y-23984598D01*
X61338789Y-23876638D01*
X61333920Y-23874914D01*
X61333916Y-23874912D01*
X61133087Y-23803795D01*
X61133083Y-23803794D01*
X61128212Y-23802069D01*
X61123119Y-23801162D01*
X61123116Y-23801161D01*
X60913373Y-23763800D01*
X60913367Y-23763799D01*
X60908284Y-23762894D01*
X60834452Y-23761992D01*
X60690081Y-23760228D01*
X60690079Y-23760228D01*
X60684911Y-23760165D01*
X60464091Y-23793955D01*
X60251756Y-23863357D01*
X60053607Y-23966507D01*
X60049474Y-23969610D01*
X60049471Y-23969612D01*
X59881925Y-24095409D01*
X59874965Y-24100635D01*
X59720629Y-24262138D01*
X59594743Y-24446680D01*
X59579003Y-24480590D01*
X59522867Y-24601525D01*
X59500688Y-24649305D01*
X59440989Y-24864570D01*
X59417251Y-25086695D01*
X59417548Y-25091848D01*
X59417548Y-25091851D01*
X59423011Y-25186590D01*
X59430110Y-25309715D01*
X59431247Y-25314761D01*
X59431248Y-25314767D01*
X59449767Y-25396940D01*
X59479222Y-25527639D01*
X59563266Y-25734616D01*
X59614019Y-25817438D01*
X59666021Y-25902297D01*
X59679987Y-25925088D01*
X59826250Y-26093938D01*
X59998126Y-26236632D01*
X60068595Y-26277811D01*
X60071445Y-26279476D01*
X60120169Y-26331114D01*
X60133240Y-26400897D01*
X60106509Y-26466669D01*
X60066055Y-26500027D01*
X60053607Y-26506507D01*
X60049474Y-26509610D01*
X60049471Y-26509612D01*
X60025247Y-26527800D01*
X59874965Y-26640635D01*
X59871393Y-26644373D01*
X59785759Y-26733984D01*
X59720629Y-26802138D01*
X59594743Y-26986680D01*
X59500688Y-27189305D01*
X59440989Y-27404570D01*
X59417251Y-27626695D01*
X57264632Y-27626695D01*
X57420622Y-27481740D01*
X57602713Y-27259268D01*
X57752927Y-27014142D01*
X57868483Y-26750898D01*
X57947244Y-26474406D01*
X57987751Y-26189784D01*
X57987845Y-26171951D01*
X57989235Y-25906583D01*
X57989235Y-25906576D01*
X57989257Y-25902297D01*
X57951732Y-25617266D01*
X57875871Y-25339964D01*
X57809022Y-25183240D01*
X57764763Y-25079476D01*
X57764761Y-25079472D01*
X57763077Y-25075524D01*
X57688527Y-24950960D01*
X57617643Y-24832521D01*
X57617640Y-24832517D01*
X57615439Y-24828839D01*
X57435687Y-24604472D01*
X57312289Y-24487372D01*
X57230258Y-24409527D01*
X57230255Y-24409525D01*
X57227149Y-24406577D01*
X56993683Y-24238814D01*
X56971843Y-24227250D01*
X56948654Y-24214972D01*
X56739608Y-24104288D01*
X56469627Y-24005489D01*
X56188736Y-23944245D01*
X56157685Y-23941801D01*
X55965718Y-23926693D01*
X55965709Y-23926693D01*
X55963261Y-23926500D01*
X55807729Y-23926500D01*
X55805593Y-23926646D01*
X55805582Y-23926646D01*
X55597452Y-23940835D01*
X55597446Y-23940836D01*
X55593175Y-23941127D01*
X55588980Y-23941996D01*
X55588978Y-23941996D01*
X55482155Y-23964118D01*
X55311658Y-23999426D01*
X55040657Y-24095393D01*
X54785188Y-24227250D01*
X54781675Y-24229719D01*
X54778805Y-24231457D01*
X54710175Y-24249636D01*
X54642612Y-24227826D01*
X54597565Y-24172950D01*
X54588541Y-24107778D01*
X54590115Y-24095409D01*
X54590597Y-24089108D01*
X54592847Y-24003160D01*
X54592696Y-23996851D01*
X54573912Y-23744074D01*
X54572536Y-23734868D01*
X54516929Y-23489126D01*
X54514205Y-23480215D01*
X54422888Y-23245392D01*
X54418877Y-23236983D01*
X54293854Y-23018240D01*
X54288643Y-23010514D01*
X54251391Y-22963261D01*
X54239466Y-22954790D01*
X54227934Y-22961276D01*
X51792270Y-25396940D01*
X51785612Y-25409133D01*
X51250000Y-25409133D01*
X51250000Y-25168424D01*
X51270002Y-25100303D01*
X51323658Y-25053810D01*
X51385095Y-25044977D01*
X51385250Y-25042840D01*
X51419120Y-25045303D01*
X51433123Y-25037667D01*
X52457978Y-24012812D01*
X52465592Y-23998868D01*
X52465461Y-23997035D01*
X52461210Y-23990420D01*
X51431321Y-22960531D01*
X51417377Y-22952917D01*
X51384989Y-22955233D01*
X51315615Y-22940142D01*
X51265413Y-22889940D01*
X51250000Y-22829554D01*
X51250000Y-22134000D01*
X51270002Y-22065879D01*
X51323658Y-22019386D01*
X51376000Y-22008000D01*
X52569515Y-22008000D01*
X52637636Y-22028002D01*
G37*
%TD.AperFunction*%
%TD*%
%TA.AperFunction,Conductor*%
%TO.N,GND*%
G36*
X36960408Y-58162751D02*
G01*
X37014003Y-58194552D01*
X40048685Y-61229234D01*
X40059552Y-61241625D01*
X40079013Y-61266987D01*
X40085563Y-61272013D01*
X40110925Y-61291474D01*
X40110928Y-61291477D01*
X40184917Y-61348251D01*
X40206124Y-61364524D01*
X40354149Y-61425838D01*
X40362336Y-61426916D01*
X40362337Y-61426916D01*
X40373542Y-61428391D01*
X40404738Y-61432498D01*
X40473115Y-61441500D01*
X40473118Y-61441500D01*
X40473126Y-61441501D01*
X40504811Y-61445672D01*
X40513000Y-61446750D01*
X40544693Y-61442578D01*
X40561136Y-61441500D01*
X45352261Y-61441500D01*
X45420382Y-61461502D01*
X45441356Y-61478405D01*
X45954185Y-61991234D01*
X45965052Y-62003625D01*
X45984513Y-62028987D01*
X45991063Y-62034013D01*
X46016421Y-62053471D01*
X46016437Y-62053485D01*
X46050005Y-62079242D01*
X46111624Y-62126524D01*
X46259649Y-62187838D01*
X46267836Y-62188916D01*
X46267837Y-62188916D01*
X46279042Y-62190391D01*
X46310238Y-62194498D01*
X46378615Y-62203500D01*
X46378618Y-62203500D01*
X46378626Y-62203501D01*
X46410311Y-62207672D01*
X46418500Y-62208750D01*
X46426689Y-62207672D01*
X46450193Y-62204578D01*
X46466638Y-62203500D01*
X47513364Y-62203500D01*
X47529807Y-62204578D01*
X47561500Y-62208750D01*
X47569689Y-62207672D01*
X47601374Y-62203501D01*
X47601384Y-62203500D01*
X47601385Y-62203500D01*
X47601401Y-62203498D01*
X47700957Y-62190391D01*
X47712164Y-62188916D01*
X47712166Y-62188915D01*
X47720351Y-62187838D01*
X47868376Y-62126524D01*
X47929995Y-62079242D01*
X47963569Y-62053480D01*
X47963575Y-62053474D01*
X47988934Y-62034015D01*
X47995487Y-62028987D01*
X48000517Y-62022432D01*
X48014952Y-62003621D01*
X48025819Y-61991230D01*
X49669290Y-60347759D01*
X49731602Y-60313733D01*
X49742221Y-60312121D01*
X49745985Y-60311457D01*
X49751463Y-60310978D01*
X49756776Y-60309554D01*
X49756778Y-60309554D01*
X49960886Y-60254863D01*
X49960888Y-60254862D01*
X49966196Y-60253440D01*
X49971178Y-60251117D01*
X50070750Y-60204686D01*
X50140942Y-60194025D01*
X50205755Y-60223005D01*
X50244611Y-60282425D01*
X50250000Y-60318881D01*
X50250000Y-64366000D01*
X50229998Y-64434121D01*
X50176342Y-64480614D01*
X50124000Y-64492000D01*
X31626000Y-64492000D01*
X31557879Y-64471998D01*
X31511386Y-64418342D01*
X31500000Y-64366000D01*
X31500000Y-61472969D01*
X31520002Y-61404848D01*
X31573658Y-61358355D01*
X31643932Y-61348251D01*
X31708512Y-61377745D01*
X31742743Y-61425565D01*
X31757336Y-61461502D01*
X31803266Y-61574616D01*
X31854019Y-61657438D01*
X31917291Y-61760688D01*
X31919987Y-61765088D01*
X32066250Y-61933938D01*
X32238126Y-62076632D01*
X32431000Y-62189338D01*
X32639692Y-62269030D01*
X32644760Y-62270061D01*
X32644763Y-62270062D01*
X32752017Y-62291883D01*
X32858597Y-62313567D01*
X32863772Y-62313757D01*
X32863774Y-62313757D01*
X33076673Y-62321564D01*
X33076677Y-62321564D01*
X33081837Y-62321753D01*
X33086957Y-62321097D01*
X33086959Y-62321097D01*
X33298288Y-62294025D01*
X33298289Y-62294025D01*
X33303416Y-62293368D01*
X33308366Y-62291883D01*
X33512429Y-62230661D01*
X33512434Y-62230659D01*
X33517384Y-62229174D01*
X33717994Y-62130896D01*
X33899860Y-62001173D01*
X33903973Y-61997075D01*
X34054435Y-61847137D01*
X34058096Y-61843489D01*
X34117594Y-61760689D01*
X34188453Y-61662077D01*
X34189776Y-61663028D01*
X34236645Y-61619857D01*
X34306580Y-61607625D01*
X34372026Y-61635144D01*
X34399875Y-61666994D01*
X34459987Y-61765088D01*
X34606250Y-61933938D01*
X34778126Y-62076632D01*
X34971000Y-62189338D01*
X35179692Y-62269030D01*
X35184760Y-62270061D01*
X35184763Y-62270062D01*
X35292017Y-62291883D01*
X35398597Y-62313567D01*
X35403772Y-62313757D01*
X35403774Y-62313757D01*
X35616673Y-62321564D01*
X35616677Y-62321564D01*
X35621837Y-62321753D01*
X35626957Y-62321097D01*
X35626959Y-62321097D01*
X35838288Y-62294025D01*
X35838289Y-62294025D01*
X35843416Y-62293368D01*
X35848366Y-62291883D01*
X36052429Y-62230661D01*
X36052434Y-62230659D01*
X36057384Y-62229174D01*
X36257994Y-62130896D01*
X36439860Y-62001173D01*
X36443973Y-61997075D01*
X36594435Y-61847137D01*
X36598096Y-61843489D01*
X36657594Y-61760689D01*
X36725435Y-61666277D01*
X36728453Y-61662077D01*
X36749320Y-61619857D01*
X36825136Y-61466453D01*
X36825137Y-61466451D01*
X36827430Y-61461811D01*
X36892370Y-61248069D01*
X36921529Y-61026590D01*
X36923156Y-60960000D01*
X36904852Y-60737361D01*
X36850431Y-60520702D01*
X36761354Y-60315840D01*
X36682548Y-60194025D01*
X36642822Y-60132617D01*
X36642820Y-60132614D01*
X36640014Y-60128277D01*
X36489670Y-59963051D01*
X36485619Y-59959852D01*
X36485615Y-59959848D01*
X36318414Y-59827800D01*
X36318410Y-59827798D01*
X36314359Y-59824598D01*
X36272569Y-59801529D01*
X36222598Y-59751097D01*
X36207826Y-59681654D01*
X36232942Y-59615248D01*
X36260294Y-59588641D01*
X36435328Y-59463792D01*
X36443200Y-59457139D01*
X36594052Y-59306812D01*
X36600730Y-59298965D01*
X36725003Y-59126020D01*
X36730313Y-59117183D01*
X36824670Y-58926267D01*
X36828469Y-58916672D01*
X36890377Y-58712910D01*
X36892555Y-58702837D01*
X36893986Y-58691962D01*
X36891775Y-58677778D01*
X36878617Y-58674000D01*
X32892000Y-58674000D01*
X32823879Y-58653998D01*
X32777386Y-58600342D01*
X32766000Y-58548000D01*
X32766000Y-58292000D01*
X32786002Y-58223879D01*
X32839658Y-58177386D01*
X32892000Y-58166000D01*
X36878342Y-58166000D01*
X36889411Y-58162750D01*
X36960408Y-58162751D01*
G37*
%TD.AperFunction*%
%TA.AperFunction,Conductor*%
G36*
X50192121Y-22028002D02*
G01*
X50238614Y-22081658D01*
X50250000Y-22134000D01*
X50250000Y-24771119D01*
X50229998Y-24839240D01*
X50176342Y-24885733D01*
X50106068Y-24895837D01*
X50070750Y-24885314D01*
X49971178Y-24838883D01*
X49971177Y-24838882D01*
X49966196Y-24836560D01*
X49960888Y-24835138D01*
X49960886Y-24835137D01*
X49895051Y-24817497D01*
X49751463Y-24779022D01*
X49530000Y-24759647D01*
X49308537Y-24779022D01*
X49164949Y-24817497D01*
X49099114Y-24835137D01*
X49099112Y-24835138D01*
X49093804Y-24836560D01*
X49088823Y-24838882D01*
X49088822Y-24838883D01*
X48897311Y-24928186D01*
X48897306Y-24928189D01*
X48892324Y-24930512D01*
X48887817Y-24933668D01*
X48887815Y-24933669D01*
X48714730Y-25054864D01*
X48714727Y-25054866D01*
X48710219Y-25058023D01*
X48553023Y-25215219D01*
X48549866Y-25219727D01*
X48549864Y-25219730D01*
X48428669Y-25392815D01*
X48425512Y-25397324D01*
X48423189Y-25402306D01*
X48423186Y-25402311D01*
X48335798Y-25589715D01*
X48331560Y-25598804D01*
X48274022Y-25813537D01*
X48254647Y-26035000D01*
X48274022Y-26256463D01*
X48275446Y-26261776D01*
X48324319Y-26444171D01*
X48331560Y-26471196D01*
X48333882Y-26476177D01*
X48333883Y-26476178D01*
X48423186Y-26667689D01*
X48423189Y-26667694D01*
X48425512Y-26672676D01*
X48428668Y-26677183D01*
X48428669Y-26677185D01*
X48523168Y-26812143D01*
X48553023Y-26854781D01*
X48710219Y-27011977D01*
X48714727Y-27015134D01*
X48714730Y-27015136D01*
X48790495Y-27068187D01*
X48892323Y-27139488D01*
X48897305Y-27141811D01*
X48897310Y-27141814D01*
X49002373Y-27190805D01*
X49055658Y-27237722D01*
X49075119Y-27305999D01*
X49054577Y-27373959D01*
X49002373Y-27419195D01*
X48897311Y-27468186D01*
X48897306Y-27468189D01*
X48892324Y-27470512D01*
X48887817Y-27473668D01*
X48887815Y-27473669D01*
X48714730Y-27594864D01*
X48714727Y-27594866D01*
X48710219Y-27598023D01*
X48553023Y-27755219D01*
X48549866Y-27759727D01*
X48549864Y-27759730D01*
X48428669Y-27932815D01*
X48425512Y-27937324D01*
X48423189Y-27942306D01*
X48423186Y-27942311D01*
X48338099Y-28124781D01*
X48331560Y-28138804D01*
X48274022Y-28353537D01*
X48254647Y-28575000D01*
X48274022Y-28796463D01*
X48331560Y-29011196D01*
X48333882Y-29016177D01*
X48333883Y-29016178D01*
X48423186Y-29207689D01*
X48423189Y-29207694D01*
X48425512Y-29212676D01*
X48428668Y-29217183D01*
X48428669Y-29217185D01*
X48500680Y-29320027D01*
X48553023Y-29394781D01*
X48710219Y-29551977D01*
X48714727Y-29555134D01*
X48714730Y-29555136D01*
X48790495Y-29608187D01*
X48892323Y-29679488D01*
X48897305Y-29681811D01*
X48897310Y-29681814D01*
X49002373Y-29730805D01*
X49055658Y-29777722D01*
X49075119Y-29845999D01*
X49054577Y-29913959D01*
X49002373Y-29959195D01*
X48897311Y-30008186D01*
X48897306Y-30008189D01*
X48892324Y-30010512D01*
X48887817Y-30013668D01*
X48887815Y-30013669D01*
X48714730Y-30134864D01*
X48714727Y-30134866D01*
X48710219Y-30138023D01*
X48553023Y-30295219D01*
X48549866Y-30299727D01*
X48549864Y-30299730D01*
X48428669Y-30472815D01*
X48425512Y-30477324D01*
X48423189Y-30482306D01*
X48423186Y-30482311D01*
X48338099Y-30664781D01*
X48331560Y-30678804D01*
X48274022Y-30893537D01*
X48254647Y-31115000D01*
X48274022Y-31336463D01*
X48331560Y-31551196D01*
X48333882Y-31556177D01*
X48333883Y-31556178D01*
X48423186Y-31747689D01*
X48423189Y-31747694D01*
X48425512Y-31752676D01*
X48428668Y-31757183D01*
X48428669Y-31757185D01*
X48500680Y-31860027D01*
X48553023Y-31934781D01*
X48710219Y-32091977D01*
X48714727Y-32095134D01*
X48714730Y-32095136D01*
X48787704Y-32146233D01*
X48892323Y-32219488D01*
X48897305Y-32221811D01*
X48897310Y-32221814D01*
X49002373Y-32270805D01*
X49055658Y-32317722D01*
X49075119Y-32385999D01*
X49054577Y-32453959D01*
X49002373Y-32499195D01*
X48897311Y-32548186D01*
X48897306Y-32548189D01*
X48892324Y-32550512D01*
X48887817Y-32553668D01*
X48887815Y-32553669D01*
X48714730Y-32674864D01*
X48714727Y-32674866D01*
X48710219Y-32678023D01*
X48553023Y-32835219D01*
X48549866Y-32839727D01*
X48549864Y-32839730D01*
X48428669Y-33012815D01*
X48425512Y-33017324D01*
X48423189Y-33022306D01*
X48423186Y-33022311D01*
X48338099Y-33204781D01*
X48331560Y-33218804D01*
X48274022Y-33433537D01*
X48254647Y-33655000D01*
X48274022Y-33876463D01*
X48275446Y-33881776D01*
X48324319Y-34064171D01*
X48331560Y-34091196D01*
X48333882Y-34096177D01*
X48333883Y-34096178D01*
X48423186Y-34287689D01*
X48423189Y-34287694D01*
X48425512Y-34292676D01*
X48428668Y-34297183D01*
X48428669Y-34297185D01*
X48516430Y-34422520D01*
X48553023Y-34474781D01*
X48710219Y-34631977D01*
X48714727Y-34635134D01*
X48714730Y-34635136D01*
X48790495Y-34688187D01*
X48892323Y-34759488D01*
X48897305Y-34761811D01*
X48897310Y-34761814D01*
X49002373Y-34810805D01*
X49055658Y-34857722D01*
X49075119Y-34925999D01*
X49054577Y-34993959D01*
X49002373Y-35039195D01*
X48897311Y-35088186D01*
X48897306Y-35088189D01*
X48892324Y-35090512D01*
X48887817Y-35093668D01*
X48887815Y-35093669D01*
X48714730Y-35214864D01*
X48714727Y-35214866D01*
X48710219Y-35218023D01*
X48553023Y-35375219D01*
X48549866Y-35379727D01*
X48549864Y-35379730D01*
X48428669Y-35552815D01*
X48425512Y-35557324D01*
X48423189Y-35562306D01*
X48423186Y-35562311D01*
X48340169Y-35740342D01*
X48331560Y-35758804D01*
X48274022Y-35973537D01*
X48254647Y-36195000D01*
X48274022Y-36416463D01*
X48331560Y-36631196D01*
X48333882Y-36636177D01*
X48333883Y-36636178D01*
X48423186Y-36827689D01*
X48423189Y-36827694D01*
X48425512Y-36832676D01*
X48428668Y-36837183D01*
X48428669Y-36837185D01*
X48520127Y-36967800D01*
X48553023Y-37014781D01*
X48710219Y-37171977D01*
X48714727Y-37175134D01*
X48714730Y-37175136D01*
X48790495Y-37228187D01*
X48892323Y-37299488D01*
X48897305Y-37301811D01*
X48897310Y-37301814D01*
X49088822Y-37391117D01*
X49093804Y-37393440D01*
X49099112Y-37394862D01*
X49099114Y-37394863D01*
X49116860Y-37399618D01*
X49308537Y-37450978D01*
X49530000Y-37470353D01*
X49751463Y-37450978D01*
X49943140Y-37399618D01*
X49960886Y-37394863D01*
X49960888Y-37394862D01*
X49966196Y-37393440D01*
X49971178Y-37391117D01*
X50070750Y-37344686D01*
X50140942Y-37334025D01*
X50205755Y-37363005D01*
X50244611Y-37422425D01*
X50250000Y-37458881D01*
X50250000Y-47631119D01*
X50229998Y-47699240D01*
X50176342Y-47745733D01*
X50106068Y-47755837D01*
X50070750Y-47745314D01*
X49971178Y-47698883D01*
X49971177Y-47698882D01*
X49966196Y-47696560D01*
X49960888Y-47695138D01*
X49960886Y-47695137D01*
X49895051Y-47677497D01*
X49751463Y-47639022D01*
X49530000Y-47619647D01*
X49308537Y-47639022D01*
X49164949Y-47677497D01*
X49099114Y-47695137D01*
X49099112Y-47695138D01*
X49093804Y-47696560D01*
X49088823Y-47698882D01*
X49088822Y-47698883D01*
X48897311Y-47788186D01*
X48897306Y-47788189D01*
X48892324Y-47790512D01*
X48887817Y-47793668D01*
X48887815Y-47793669D01*
X48714730Y-47914864D01*
X48714727Y-47914866D01*
X48710219Y-47918023D01*
X48553023Y-48075219D01*
X48549866Y-48079727D01*
X48549864Y-48079730D01*
X48428669Y-48252815D01*
X48425512Y-48257324D01*
X48423189Y-48262306D01*
X48423186Y-48262311D01*
X48388559Y-48336569D01*
X48331560Y-48458804D01*
X48274022Y-48673537D01*
X48254647Y-48895000D01*
X48274022Y-49116463D01*
X48275446Y-49121776D01*
X48324319Y-49304171D01*
X48331560Y-49331196D01*
X48333882Y-49336177D01*
X48333883Y-49336178D01*
X48423186Y-49527689D01*
X48423189Y-49527694D01*
X48425512Y-49532676D01*
X48428668Y-49537183D01*
X48428669Y-49537185D01*
X48520127Y-49667800D01*
X48553023Y-49714781D01*
X48710219Y-49871977D01*
X48714727Y-49875134D01*
X48714730Y-49875136D01*
X48754256Y-49902812D01*
X48892323Y-49999488D01*
X48897305Y-50001811D01*
X48897310Y-50001814D01*
X49002373Y-50050805D01*
X49055658Y-50097722D01*
X49075119Y-50165999D01*
X49054577Y-50233959D01*
X49002373Y-50279195D01*
X48897311Y-50328186D01*
X48897306Y-50328189D01*
X48892324Y-50330512D01*
X48887817Y-50333668D01*
X48887815Y-50333669D01*
X48714730Y-50454864D01*
X48714727Y-50454866D01*
X48710219Y-50458023D01*
X48553023Y-50615219D01*
X48425512Y-50797324D01*
X48423189Y-50802306D01*
X48423186Y-50802311D01*
X48338099Y-50984781D01*
X48331560Y-50998804D01*
X48274022Y-51213537D01*
X48254647Y-51435000D01*
X48274022Y-51656463D01*
X48275446Y-51661776D01*
X48324319Y-51844171D01*
X48331560Y-51871196D01*
X48333882Y-51876177D01*
X48333883Y-51876178D01*
X48423186Y-52067689D01*
X48423189Y-52067694D01*
X48425512Y-52072676D01*
X48428668Y-52077183D01*
X48428669Y-52077185D01*
X48520127Y-52207800D01*
X48553023Y-52254781D01*
X48710219Y-52411977D01*
X48714727Y-52415134D01*
X48714730Y-52415136D01*
X48790495Y-52468187D01*
X48892323Y-52539488D01*
X48897305Y-52541811D01*
X48897310Y-52541814D01*
X49002373Y-52590805D01*
X49055658Y-52637722D01*
X49075119Y-52705999D01*
X49054577Y-52773959D01*
X49002373Y-52819195D01*
X48897311Y-52868186D01*
X48897306Y-52868189D01*
X48892324Y-52870512D01*
X48887817Y-52873668D01*
X48887815Y-52873669D01*
X48714730Y-52994864D01*
X48714727Y-52994866D01*
X48710219Y-52998023D01*
X48553023Y-53155219D01*
X48425512Y-53337324D01*
X48423189Y-53342306D01*
X48423186Y-53342311D01*
X48338099Y-53524781D01*
X48331560Y-53538804D01*
X48274022Y-53753537D01*
X48254647Y-53975000D01*
X48274022Y-54196463D01*
X48275446Y-54201776D01*
X48324319Y-54384171D01*
X48331560Y-54411196D01*
X48333882Y-54416177D01*
X48333883Y-54416178D01*
X48423186Y-54607689D01*
X48423189Y-54607694D01*
X48425512Y-54612676D01*
X48428668Y-54617183D01*
X48428669Y-54617185D01*
X48520127Y-54747800D01*
X48553023Y-54794781D01*
X48710219Y-54951977D01*
X48714727Y-54955134D01*
X48714730Y-54955136D01*
X48750935Y-54980487D01*
X48892323Y-55079488D01*
X48897305Y-55081811D01*
X48897310Y-55081814D01*
X49002373Y-55130805D01*
X49055658Y-55177722D01*
X49075119Y-55245999D01*
X49054577Y-55313959D01*
X49002373Y-55359195D01*
X48897311Y-55408186D01*
X48897306Y-55408189D01*
X48892324Y-55410512D01*
X48887817Y-55413668D01*
X48887815Y-55413669D01*
X48714730Y-55534864D01*
X48714727Y-55534866D01*
X48710219Y-55538023D01*
X48553023Y-55695219D01*
X48549866Y-55699727D01*
X48549864Y-55699730D01*
X48428669Y-55872815D01*
X48425512Y-55877324D01*
X48423189Y-55882306D01*
X48423186Y-55882311D01*
X48338099Y-56064781D01*
X48331560Y-56078804D01*
X48274022Y-56293537D01*
X48254647Y-56515000D01*
X48274022Y-56736463D01*
X48275446Y-56741776D01*
X48324319Y-56924171D01*
X48331560Y-56951196D01*
X48333882Y-56956177D01*
X48333883Y-56956178D01*
X48423186Y-57147689D01*
X48423189Y-57147694D01*
X48425512Y-57152676D01*
X48428668Y-57157183D01*
X48428669Y-57157185D01*
X48516430Y-57282520D01*
X48553023Y-57334781D01*
X48710219Y-57491977D01*
X48714727Y-57495134D01*
X48714730Y-57495136D01*
X48750935Y-57520487D01*
X48892323Y-57619488D01*
X48897305Y-57621811D01*
X48897310Y-57621814D01*
X49002373Y-57670805D01*
X49055658Y-57717722D01*
X49075119Y-57785999D01*
X49054577Y-57853959D01*
X49002373Y-57899195D01*
X48897311Y-57948186D01*
X48897306Y-57948189D01*
X48892324Y-57950512D01*
X48887817Y-57953668D01*
X48887815Y-57953669D01*
X48714730Y-58074864D01*
X48714727Y-58074866D01*
X48710219Y-58078023D01*
X48553023Y-58235219D01*
X48549866Y-58239727D01*
X48549864Y-58239730D01*
X48428669Y-58412815D01*
X48425512Y-58417324D01*
X48423189Y-58422306D01*
X48423186Y-58422311D01*
X48340169Y-58600342D01*
X48331560Y-58618804D01*
X48274022Y-58833537D01*
X48254647Y-59055000D01*
X48274022Y-59276463D01*
X48331560Y-59491196D01*
X48333882Y-59496177D01*
X48333883Y-59496178D01*
X48420914Y-59682815D01*
X48425512Y-59692676D01*
X48438079Y-59710623D01*
X48460768Y-59777894D01*
X48443485Y-59846755D01*
X48423962Y-59871989D01*
X48385234Y-59910717D01*
X48322922Y-59944743D01*
X48252107Y-59939678D01*
X48195271Y-59897131D01*
X48181944Y-59874872D01*
X48096814Y-59692311D01*
X48096811Y-59692306D01*
X48094488Y-59687324D01*
X48018781Y-59579203D01*
X47970136Y-59509730D01*
X47970134Y-59509727D01*
X47966977Y-59505219D01*
X47809781Y-59348023D01*
X47805273Y-59344866D01*
X47805270Y-59344864D01*
X47639369Y-59228699D01*
X47627677Y-59220512D01*
X47622695Y-59218189D01*
X47622690Y-59218186D01*
X47517627Y-59169195D01*
X47464342Y-59122278D01*
X47444881Y-59054001D01*
X47465423Y-58986041D01*
X47517627Y-58940805D01*
X47622690Y-58891814D01*
X47622695Y-58891811D01*
X47627677Y-58889488D01*
X47745595Y-58806921D01*
X47805270Y-58765136D01*
X47805273Y-58765134D01*
X47809781Y-58761977D01*
X47966977Y-58604781D01*
X48006736Y-58548000D01*
X48091331Y-58427185D01*
X48091332Y-58427183D01*
X48094488Y-58422676D01*
X48096811Y-58417694D01*
X48096814Y-58417689D01*
X48186117Y-58226178D01*
X48186118Y-58226177D01*
X48188440Y-58221196D01*
X48245978Y-58006463D01*
X48265353Y-57785000D01*
X48245978Y-57563537D01*
X48188440Y-57348804D01*
X48181901Y-57334781D01*
X48096814Y-57152311D01*
X48096811Y-57152306D01*
X48094488Y-57147324D01*
X48090932Y-57142245D01*
X47970136Y-56969730D01*
X47970134Y-56969727D01*
X47966977Y-56965219D01*
X47809781Y-56808023D01*
X47805273Y-56804866D01*
X47805270Y-56804864D01*
X47699758Y-56730984D01*
X47627677Y-56680512D01*
X47622695Y-56678189D01*
X47622690Y-56678186D01*
X47517627Y-56629195D01*
X47464342Y-56582278D01*
X47444881Y-56514001D01*
X47465423Y-56446041D01*
X47517627Y-56400805D01*
X47622690Y-56351814D01*
X47622695Y-56351811D01*
X47627677Y-56349488D01*
X47743695Y-56268251D01*
X47805270Y-56225136D01*
X47805273Y-56225134D01*
X47809781Y-56221977D01*
X47966977Y-56064781D01*
X48094488Y-55882676D01*
X48096811Y-55877694D01*
X48096814Y-55877689D01*
X48186117Y-55686178D01*
X48186118Y-55686177D01*
X48188440Y-55681196D01*
X48245978Y-55466463D01*
X48265353Y-55245000D01*
X48245978Y-55023537D01*
X48188440Y-54808804D01*
X48181901Y-54794781D01*
X48096814Y-54612311D01*
X48096811Y-54612306D01*
X48094488Y-54607324D01*
X48090705Y-54601921D01*
X47970136Y-54429730D01*
X47970134Y-54429727D01*
X47966977Y-54425219D01*
X47809781Y-54268023D01*
X47805273Y-54264866D01*
X47805270Y-54264864D01*
X47699758Y-54190984D01*
X47627677Y-54140512D01*
X47622695Y-54138189D01*
X47622690Y-54138186D01*
X47517627Y-54089195D01*
X47464342Y-54042278D01*
X47444881Y-53974001D01*
X47465423Y-53906041D01*
X47517627Y-53860805D01*
X47622690Y-53811814D01*
X47622695Y-53811811D01*
X47627677Y-53809488D01*
X47729505Y-53738187D01*
X47805270Y-53685136D01*
X47805273Y-53685134D01*
X47809781Y-53681977D01*
X47966977Y-53524781D01*
X48094488Y-53342676D01*
X48096811Y-53337694D01*
X48096814Y-53337689D01*
X48186117Y-53146178D01*
X48186118Y-53146177D01*
X48188440Y-53141196D01*
X48245978Y-52926463D01*
X48265353Y-52705000D01*
X48245978Y-52483537D01*
X48188440Y-52268804D01*
X48181901Y-52254781D01*
X48096814Y-52072311D01*
X48096811Y-52072306D01*
X48094488Y-52067324D01*
X48067890Y-52029338D01*
X47970136Y-51889730D01*
X47970134Y-51889727D01*
X47966977Y-51885219D01*
X47809781Y-51728023D01*
X47805273Y-51724866D01*
X47805270Y-51724864D01*
X47699758Y-51650984D01*
X47627677Y-51600512D01*
X47622695Y-51598189D01*
X47622690Y-51598186D01*
X47517627Y-51549195D01*
X47464342Y-51502278D01*
X47444881Y-51434001D01*
X47465423Y-51366041D01*
X47517627Y-51320805D01*
X47622690Y-51271814D01*
X47622695Y-51271811D01*
X47627677Y-51269488D01*
X47729505Y-51198187D01*
X47805270Y-51145136D01*
X47805273Y-51145134D01*
X47809781Y-51141977D01*
X47966977Y-50984781D01*
X48094488Y-50802676D01*
X48096811Y-50797694D01*
X48096814Y-50797689D01*
X48186117Y-50606178D01*
X48186118Y-50606177D01*
X48188440Y-50601196D01*
X48245978Y-50386463D01*
X48265353Y-50165000D01*
X48245978Y-49943537D01*
X48188440Y-49728804D01*
X48181901Y-49714781D01*
X48096814Y-49532311D01*
X48096811Y-49532306D01*
X48094488Y-49527324D01*
X48067890Y-49489338D01*
X47970136Y-49349730D01*
X47970134Y-49349727D01*
X47966977Y-49345219D01*
X47809781Y-49188023D01*
X47805273Y-49184866D01*
X47805270Y-49184864D01*
X47699758Y-49110984D01*
X47627677Y-49060512D01*
X47622695Y-49058189D01*
X47622690Y-49058186D01*
X47431178Y-48968883D01*
X47431177Y-48968882D01*
X47426196Y-48966560D01*
X47420888Y-48965138D01*
X47420886Y-48965137D01*
X47355051Y-48947497D01*
X47211463Y-48909022D01*
X46990000Y-48889647D01*
X46768537Y-48909022D01*
X46624949Y-48947497D01*
X46559114Y-48965137D01*
X46559112Y-48965138D01*
X46553804Y-48966560D01*
X46548823Y-48968882D01*
X46548822Y-48968883D01*
X46357311Y-49058186D01*
X46357306Y-49058189D01*
X46352324Y-49060512D01*
X46347817Y-49063668D01*
X46347815Y-49063669D01*
X46174730Y-49184864D01*
X46174727Y-49184866D01*
X46170219Y-49188023D01*
X46013023Y-49345219D01*
X46009866Y-49349727D01*
X46009864Y-49349730D01*
X45912110Y-49489338D01*
X45885512Y-49527324D01*
X45883189Y-49532306D01*
X45883186Y-49532311D01*
X45798099Y-49714781D01*
X45791560Y-49728804D01*
X45734022Y-49943537D01*
X45714647Y-50165000D01*
X45734022Y-50386463D01*
X45791560Y-50601196D01*
X45793882Y-50606177D01*
X45793883Y-50606178D01*
X45883186Y-50797689D01*
X45883189Y-50797694D01*
X45885512Y-50802676D01*
X46013023Y-50984781D01*
X46170219Y-51141977D01*
X46174727Y-51145134D01*
X46174730Y-51145136D01*
X46250495Y-51198187D01*
X46352323Y-51269488D01*
X46357305Y-51271811D01*
X46357310Y-51271814D01*
X46462373Y-51320805D01*
X46515658Y-51367722D01*
X46535119Y-51435999D01*
X46514577Y-51503959D01*
X46462373Y-51549195D01*
X46357311Y-51598186D01*
X46357306Y-51598189D01*
X46352324Y-51600512D01*
X46347817Y-51603668D01*
X46347815Y-51603669D01*
X46174730Y-51724864D01*
X46174727Y-51724866D01*
X46170219Y-51728023D01*
X46013023Y-51885219D01*
X46009866Y-51889727D01*
X46009864Y-51889730D01*
X45912110Y-52029338D01*
X45885512Y-52067324D01*
X45883189Y-52072306D01*
X45883186Y-52072311D01*
X45798099Y-52254781D01*
X45791560Y-52268804D01*
X45734022Y-52483537D01*
X45714647Y-52705000D01*
X45734022Y-52926463D01*
X45791560Y-53141196D01*
X45793882Y-53146177D01*
X45793883Y-53146178D01*
X45883186Y-53337689D01*
X45883189Y-53337694D01*
X45885512Y-53342676D01*
X46013023Y-53524781D01*
X46170219Y-53681977D01*
X46174727Y-53685134D01*
X46174730Y-53685136D01*
X46250495Y-53738187D01*
X46352323Y-53809488D01*
X46357305Y-53811811D01*
X46357310Y-53811814D01*
X46462373Y-53860805D01*
X46515658Y-53907722D01*
X46535119Y-53975999D01*
X46514577Y-54043959D01*
X46462373Y-54089195D01*
X46357311Y-54138186D01*
X46357306Y-54138189D01*
X46352324Y-54140512D01*
X46347817Y-54143668D01*
X46347815Y-54143669D01*
X46174730Y-54264864D01*
X46174727Y-54264866D01*
X46170219Y-54268023D01*
X46013023Y-54425219D01*
X46009866Y-54429727D01*
X46009864Y-54429730D01*
X45889295Y-54601921D01*
X45885512Y-54607324D01*
X45883189Y-54612306D01*
X45883186Y-54612311D01*
X45798099Y-54794781D01*
X45791560Y-54808804D01*
X45734022Y-55023537D01*
X45714647Y-55245000D01*
X45734022Y-55466463D01*
X45791560Y-55681196D01*
X45793882Y-55686177D01*
X45793883Y-55686178D01*
X45883186Y-55877689D01*
X45883189Y-55877694D01*
X45885512Y-55882676D01*
X46013023Y-56064781D01*
X46170219Y-56221977D01*
X46174727Y-56225134D01*
X46174730Y-56225136D01*
X46236305Y-56268251D01*
X46352323Y-56349488D01*
X46357305Y-56351811D01*
X46357310Y-56351814D01*
X46462373Y-56400805D01*
X46515658Y-56447722D01*
X46535119Y-56515999D01*
X46514577Y-56583959D01*
X46462373Y-56629195D01*
X46357311Y-56678186D01*
X46357306Y-56678189D01*
X46352324Y-56680512D01*
X46347817Y-56683668D01*
X46347815Y-56683669D01*
X46174730Y-56804864D01*
X46174727Y-56804866D01*
X46170219Y-56808023D01*
X46013023Y-56965219D01*
X46009866Y-56969727D01*
X46009864Y-56969730D01*
X45889068Y-57142245D01*
X45885512Y-57147324D01*
X45883189Y-57152306D01*
X45883186Y-57152311D01*
X45798099Y-57334781D01*
X45791560Y-57348804D01*
X45734022Y-57563537D01*
X45714647Y-57785000D01*
X45734022Y-58006463D01*
X45791560Y-58221196D01*
X45793882Y-58226177D01*
X45793883Y-58226178D01*
X45883186Y-58417689D01*
X45883189Y-58417694D01*
X45885512Y-58422676D01*
X45888668Y-58427183D01*
X45888669Y-58427185D01*
X45973265Y-58548000D01*
X46013023Y-58604781D01*
X46170219Y-58761977D01*
X46174727Y-58765134D01*
X46174730Y-58765136D01*
X46234405Y-58806921D01*
X46352323Y-58889488D01*
X46357305Y-58891811D01*
X46357310Y-58891814D01*
X46462373Y-58940805D01*
X46515658Y-58987722D01*
X46535119Y-59055999D01*
X46514577Y-59123959D01*
X46462373Y-59169195D01*
X46357311Y-59218186D01*
X46357306Y-59218189D01*
X46352324Y-59220512D01*
X46347817Y-59223668D01*
X46347815Y-59223669D01*
X46174730Y-59344864D01*
X46174727Y-59344866D01*
X46170219Y-59348023D01*
X46013023Y-59505219D01*
X46009866Y-59509727D01*
X46009864Y-59509730D01*
X45902704Y-59662771D01*
X45847247Y-59707099D01*
X45799491Y-59716500D01*
X41007739Y-59716500D01*
X40939618Y-59696498D01*
X40918644Y-59679595D01*
X37856405Y-56617356D01*
X37822379Y-56555044D01*
X37819500Y-56528261D01*
X37819500Y-49959144D01*
X37820578Y-49942698D01*
X37823673Y-49919188D01*
X37824751Y-49911000D01*
X37803838Y-49752149D01*
X37742524Y-49604124D01*
X37669478Y-49508929D01*
X37669474Y-49508925D01*
X37669471Y-49508921D01*
X37650016Y-49483566D01*
X37650013Y-49483563D01*
X37644987Y-49477013D01*
X37638432Y-49471983D01*
X37619621Y-49457548D01*
X37607230Y-49446681D01*
X36902979Y-48742430D01*
X36868953Y-48680118D01*
X36871516Y-48616708D01*
X36881525Y-48583765D01*
X36920467Y-48524403D01*
X36985322Y-48495518D01*
X37018746Y-48495505D01*
X37036730Y-48497904D01*
X37066961Y-48501938D01*
X37073972Y-48501300D01*
X37073976Y-48501300D01*
X37216459Y-48488332D01*
X37247600Y-48485498D01*
X37254302Y-48483320D01*
X37254304Y-48483320D01*
X37413409Y-48431624D01*
X37413412Y-48431623D01*
X37420108Y-48429447D01*
X37575912Y-48336569D01*
X37707266Y-48211482D01*
X37807643Y-48060402D01*
X37872055Y-47890838D01*
X37897299Y-47711217D01*
X37897504Y-47696560D01*
X37897561Y-47692462D01*
X37897561Y-47692457D01*
X37897616Y-47688500D01*
X37877397Y-47508245D01*
X37817745Y-47336948D01*
X37721626Y-47183124D01*
X37716664Y-47178127D01*
X37598778Y-47059415D01*
X37598774Y-47059412D01*
X37593815Y-47054418D01*
X37440666Y-46957227D01*
X37411463Y-46946828D01*
X37276425Y-46898743D01*
X37276420Y-46898742D01*
X37269790Y-46896381D01*
X37262804Y-46895548D01*
X37262800Y-46895547D01*
X37179864Y-46885658D01*
X37114591Y-46857731D01*
X37105688Y-46849639D01*
X36849815Y-46593766D01*
X36838948Y-46581375D01*
X36824513Y-46562563D01*
X36819487Y-46556013D01*
X36787599Y-46531544D01*
X36745732Y-46474209D01*
X36741510Y-46403338D01*
X36751346Y-46375756D01*
X36769499Y-46339026D01*
X36827430Y-46221811D01*
X36892370Y-46008069D01*
X36921529Y-45786590D01*
X36923156Y-45720000D01*
X36904852Y-45497361D01*
X36850431Y-45280702D01*
X36761354Y-45075840D01*
X36640014Y-44888277D01*
X36489670Y-44723051D01*
X36485619Y-44719852D01*
X36485615Y-44719848D01*
X36318414Y-44587800D01*
X36318410Y-44587798D01*
X36314359Y-44584598D01*
X36273053Y-44561796D01*
X36223084Y-44511364D01*
X36208312Y-44441921D01*
X36233428Y-44375516D01*
X36260780Y-44348909D01*
X36304603Y-44317650D01*
X36439860Y-44221173D01*
X36598096Y-44063489D01*
X36728453Y-43882077D01*
X36741995Y-43854678D01*
X36825136Y-43686453D01*
X36825137Y-43686451D01*
X36827430Y-43681811D01*
X36892370Y-43468069D01*
X36921529Y-43246590D01*
X36923156Y-43180000D01*
X36904852Y-42957361D01*
X36850431Y-42740702D01*
X36761354Y-42535840D01*
X36640014Y-42348277D01*
X36489670Y-42183051D01*
X36485619Y-42179852D01*
X36485615Y-42179848D01*
X36318414Y-42047800D01*
X36318410Y-42047798D01*
X36314359Y-42044598D01*
X36273053Y-42021796D01*
X36223084Y-41971364D01*
X36208312Y-41901921D01*
X36233428Y-41835516D01*
X36260780Y-41808909D01*
X36304603Y-41777650D01*
X36439860Y-41681173D01*
X36598096Y-41523489D01*
X36657594Y-41440689D01*
X36725435Y-41346277D01*
X36728453Y-41342077D01*
X36749320Y-41299857D01*
X36825136Y-41146453D01*
X36825137Y-41146451D01*
X36827430Y-41141811D01*
X36892370Y-40928069D01*
X36921529Y-40706590D01*
X36923156Y-40640000D01*
X36904852Y-40417361D01*
X36850431Y-40200702D01*
X36761354Y-39995840D01*
X36640014Y-39808277D01*
X36489670Y-39643051D01*
X36485619Y-39639852D01*
X36485615Y-39639848D01*
X36318414Y-39507800D01*
X36318410Y-39507798D01*
X36314359Y-39504598D01*
X36273053Y-39481796D01*
X36223084Y-39431364D01*
X36208312Y-39361921D01*
X36233428Y-39295516D01*
X36260780Y-39268909D01*
X36304603Y-39237650D01*
X36439860Y-39141173D01*
X36598096Y-38983489D01*
X36657594Y-38900689D01*
X36725435Y-38806277D01*
X36728453Y-38802077D01*
X36749320Y-38759857D01*
X36825136Y-38606453D01*
X36825137Y-38606451D01*
X36827430Y-38601811D01*
X36875032Y-38445136D01*
X36890865Y-38393023D01*
X36890865Y-38393021D01*
X36892370Y-38388069D01*
X36921529Y-38166590D01*
X36921611Y-38163240D01*
X36923074Y-38103365D01*
X36923074Y-38103361D01*
X36923156Y-38100000D01*
X36904852Y-37877361D01*
X36850431Y-37660702D01*
X36765337Y-37465000D01*
X45714647Y-37465000D01*
X45734022Y-37686463D01*
X45735446Y-37691776D01*
X45783829Y-37872342D01*
X45791560Y-37901196D01*
X45793882Y-37906177D01*
X45793883Y-37906178D01*
X45883186Y-38097689D01*
X45883189Y-38097694D01*
X45885512Y-38102676D01*
X46013023Y-38284781D01*
X46170219Y-38441977D01*
X46174727Y-38445134D01*
X46174730Y-38445136D01*
X46236305Y-38488251D01*
X46352323Y-38569488D01*
X46357305Y-38571811D01*
X46357310Y-38571814D01*
X46445568Y-38612969D01*
X46553804Y-38663440D01*
X46559112Y-38664862D01*
X46559114Y-38664863D01*
X46624949Y-38682503D01*
X46768537Y-38720978D01*
X46990000Y-38740353D01*
X47211463Y-38720978D01*
X47355051Y-38682503D01*
X47420886Y-38664863D01*
X47420888Y-38664862D01*
X47426196Y-38663440D01*
X47534432Y-38612969D01*
X47622690Y-38571814D01*
X47622695Y-38571811D01*
X47627677Y-38569488D01*
X47743695Y-38488251D01*
X47805270Y-38445136D01*
X47805273Y-38445134D01*
X47809781Y-38441977D01*
X47966977Y-38284781D01*
X48094488Y-38102676D01*
X48096811Y-38097694D01*
X48096814Y-38097689D01*
X48186117Y-37906178D01*
X48186118Y-37906177D01*
X48188440Y-37901196D01*
X48196172Y-37872342D01*
X48244554Y-37691776D01*
X48245978Y-37686463D01*
X48265353Y-37465000D01*
X48245978Y-37243537D01*
X48188440Y-37028804D01*
X48181901Y-37014781D01*
X48096814Y-36832311D01*
X48096811Y-36832306D01*
X48094488Y-36827324D01*
X48018781Y-36719203D01*
X47970136Y-36649730D01*
X47970134Y-36649727D01*
X47966977Y-36645219D01*
X47809781Y-36488023D01*
X47805273Y-36484866D01*
X47805270Y-36484864D01*
X47639369Y-36368699D01*
X47627677Y-36360512D01*
X47622695Y-36358189D01*
X47622690Y-36358186D01*
X47517627Y-36309195D01*
X47464342Y-36262278D01*
X47444881Y-36194001D01*
X47465423Y-36126041D01*
X47517627Y-36080805D01*
X47622690Y-36031814D01*
X47622695Y-36031811D01*
X47627677Y-36029488D01*
X47745595Y-35946921D01*
X47805270Y-35905136D01*
X47805273Y-35905134D01*
X47809781Y-35901977D01*
X47966977Y-35744781D01*
X48006736Y-35688000D01*
X48091331Y-35567185D01*
X48091332Y-35567183D01*
X48094488Y-35562676D01*
X48096811Y-35557694D01*
X48096814Y-35557689D01*
X48186117Y-35366178D01*
X48186118Y-35366177D01*
X48188440Y-35361196D01*
X48245978Y-35146463D01*
X48265353Y-34925000D01*
X48245978Y-34703537D01*
X48188440Y-34488804D01*
X48181901Y-34474781D01*
X48096814Y-34292311D01*
X48096811Y-34292306D01*
X48094488Y-34287324D01*
X48026969Y-34190896D01*
X47970136Y-34109730D01*
X47970134Y-34109727D01*
X47966977Y-34105219D01*
X47809781Y-33948023D01*
X47805273Y-33944866D01*
X47805270Y-33944864D01*
X47699758Y-33870984D01*
X47627677Y-33820512D01*
X47622695Y-33818189D01*
X47622690Y-33818186D01*
X47517627Y-33769195D01*
X47464342Y-33722278D01*
X47444881Y-33654001D01*
X47465423Y-33586041D01*
X47517627Y-33540805D01*
X47622690Y-33491814D01*
X47622695Y-33491811D01*
X47627677Y-33489488D01*
X47743695Y-33408251D01*
X47805270Y-33365136D01*
X47805273Y-33365134D01*
X47809781Y-33361977D01*
X47966977Y-33204781D01*
X48094488Y-33022676D01*
X48096811Y-33017694D01*
X48096814Y-33017689D01*
X48186117Y-32826178D01*
X48186118Y-32826177D01*
X48188440Y-32821196D01*
X48196172Y-32792342D01*
X48244554Y-32611776D01*
X48245978Y-32606463D01*
X48265353Y-32385000D01*
X48245978Y-32163537D01*
X48188440Y-31948804D01*
X48181901Y-31934781D01*
X48096814Y-31752311D01*
X48096811Y-31752306D01*
X48094488Y-31747324D01*
X48067890Y-31709338D01*
X47970136Y-31569730D01*
X47970134Y-31569727D01*
X47966977Y-31565219D01*
X47809781Y-31408023D01*
X47805273Y-31404866D01*
X47805270Y-31404864D01*
X47699758Y-31330984D01*
X47627677Y-31280512D01*
X47622695Y-31278189D01*
X47622690Y-31278186D01*
X47517627Y-31229195D01*
X47464342Y-31182278D01*
X47444881Y-31114001D01*
X47465423Y-31046041D01*
X47517627Y-31000805D01*
X47622690Y-30951814D01*
X47622695Y-30951811D01*
X47627677Y-30949488D01*
X47743695Y-30868251D01*
X47805270Y-30825136D01*
X47805273Y-30825134D01*
X47809781Y-30821977D01*
X47966977Y-30664781D01*
X48025316Y-30581465D01*
X48091331Y-30487185D01*
X48091332Y-30487183D01*
X48094488Y-30482676D01*
X48096811Y-30477694D01*
X48096814Y-30477689D01*
X48186117Y-30286178D01*
X48186118Y-30286177D01*
X48188440Y-30281196D01*
X48196172Y-30252342D01*
X48225759Y-30141920D01*
X48245978Y-30066463D01*
X48265353Y-29845000D01*
X48245978Y-29623537D01*
X48188440Y-29408804D01*
X48181901Y-29394781D01*
X48096814Y-29212311D01*
X48096811Y-29212306D01*
X48094488Y-29207324D01*
X48091331Y-29202815D01*
X47970136Y-29029730D01*
X47970134Y-29029727D01*
X47966977Y-29025219D01*
X47809781Y-28868023D01*
X47805273Y-28864866D01*
X47805270Y-28864864D01*
X47699758Y-28790984D01*
X47627677Y-28740512D01*
X47622695Y-28738189D01*
X47622690Y-28738186D01*
X47517627Y-28689195D01*
X47464342Y-28642278D01*
X47444881Y-28574001D01*
X47465423Y-28506041D01*
X47517627Y-28460805D01*
X47622690Y-28411814D01*
X47622695Y-28411811D01*
X47627677Y-28409488D01*
X47743695Y-28328251D01*
X47805270Y-28285136D01*
X47805273Y-28285134D01*
X47809781Y-28281977D01*
X47966977Y-28124781D01*
X48094488Y-27942676D01*
X48096811Y-27937694D01*
X48096814Y-27937689D01*
X48186117Y-27746178D01*
X48186118Y-27746177D01*
X48188440Y-27741196D01*
X48196172Y-27712342D01*
X48244554Y-27531776D01*
X48245978Y-27526463D01*
X48265353Y-27305000D01*
X48245978Y-27083537D01*
X48188440Y-26868804D01*
X48181415Y-26853738D01*
X48096814Y-26672311D01*
X48096811Y-26672306D01*
X48094488Y-26667324D01*
X48056633Y-26613261D01*
X47970136Y-26489730D01*
X47970134Y-26489727D01*
X47966977Y-26485219D01*
X47809781Y-26328023D01*
X47805273Y-26324866D01*
X47805270Y-26324864D01*
X47699758Y-26250984D01*
X47627677Y-26200512D01*
X47622695Y-26198189D01*
X47622690Y-26198186D01*
X47431178Y-26108883D01*
X47431177Y-26108882D01*
X47426196Y-26106560D01*
X47420888Y-26105138D01*
X47420886Y-26105137D01*
X47355051Y-26087497D01*
X47211463Y-26049022D01*
X46990000Y-26029647D01*
X46768537Y-26049022D01*
X46624949Y-26087497D01*
X46559114Y-26105137D01*
X46559112Y-26105138D01*
X46553804Y-26106560D01*
X46548823Y-26108882D01*
X46548822Y-26108883D01*
X46357311Y-26198186D01*
X46357306Y-26198189D01*
X46352324Y-26200512D01*
X46347817Y-26203668D01*
X46347815Y-26203669D01*
X46174730Y-26324864D01*
X46174727Y-26324866D01*
X46170219Y-26328023D01*
X46013023Y-26485219D01*
X46009866Y-26489727D01*
X46009864Y-26489730D01*
X45923367Y-26613261D01*
X45885512Y-26667324D01*
X45883189Y-26672306D01*
X45883186Y-26672311D01*
X45798585Y-26853738D01*
X45791560Y-26868804D01*
X45734022Y-27083537D01*
X45714647Y-27305000D01*
X45734022Y-27526463D01*
X45735446Y-27531776D01*
X45783829Y-27712342D01*
X45791560Y-27741196D01*
X45793882Y-27746177D01*
X45793883Y-27746178D01*
X45883186Y-27937689D01*
X45883189Y-27937694D01*
X45885512Y-27942676D01*
X46013023Y-28124781D01*
X46170219Y-28281977D01*
X46174727Y-28285134D01*
X46174730Y-28285136D01*
X46236305Y-28328251D01*
X46352323Y-28409488D01*
X46357305Y-28411811D01*
X46357310Y-28411814D01*
X46462373Y-28460805D01*
X46515658Y-28507722D01*
X46535119Y-28575999D01*
X46514577Y-28643959D01*
X46462373Y-28689195D01*
X46357311Y-28738186D01*
X46357306Y-28738189D01*
X46352324Y-28740512D01*
X46347817Y-28743668D01*
X46347815Y-28743669D01*
X46174730Y-28864864D01*
X46174727Y-28864866D01*
X46170219Y-28868023D01*
X46013023Y-29025219D01*
X46009866Y-29029727D01*
X46009864Y-29029730D01*
X45888669Y-29202815D01*
X45885512Y-29207324D01*
X45883189Y-29212306D01*
X45883186Y-29212311D01*
X45798099Y-29394781D01*
X45791560Y-29408804D01*
X45734022Y-29623537D01*
X45714647Y-29845000D01*
X45734022Y-30066463D01*
X45754241Y-30141920D01*
X45783829Y-30252342D01*
X45791560Y-30281196D01*
X45793882Y-30286177D01*
X45793883Y-30286178D01*
X45883186Y-30477689D01*
X45883189Y-30477694D01*
X45885512Y-30482676D01*
X45888668Y-30487183D01*
X45888669Y-30487185D01*
X45954685Y-30581465D01*
X46013023Y-30664781D01*
X46170219Y-30821977D01*
X46174727Y-30825134D01*
X46174730Y-30825136D01*
X46236305Y-30868251D01*
X46352323Y-30949488D01*
X46357305Y-30951811D01*
X46357310Y-30951814D01*
X46462373Y-31000805D01*
X46515658Y-31047722D01*
X46535119Y-31115999D01*
X46514577Y-31183959D01*
X46462373Y-31229195D01*
X46357311Y-31278186D01*
X46357306Y-31278189D01*
X46352324Y-31280512D01*
X46347817Y-31283668D01*
X46347815Y-31283669D01*
X46174730Y-31404864D01*
X46174727Y-31404866D01*
X46170219Y-31408023D01*
X46013023Y-31565219D01*
X46009866Y-31569727D01*
X46009864Y-31569730D01*
X45912110Y-31709338D01*
X45885512Y-31747324D01*
X45883189Y-31752306D01*
X45883186Y-31752311D01*
X45798099Y-31934781D01*
X45791560Y-31948804D01*
X45734022Y-32163537D01*
X45714647Y-32385000D01*
X45734022Y-32606463D01*
X45735446Y-32611776D01*
X45783829Y-32792342D01*
X45791560Y-32821196D01*
X45793882Y-32826177D01*
X45793883Y-32826178D01*
X45883186Y-33017689D01*
X45883189Y-33017694D01*
X45885512Y-33022676D01*
X46013023Y-33204781D01*
X46170219Y-33361977D01*
X46174727Y-33365134D01*
X46174730Y-33365136D01*
X46236305Y-33408251D01*
X46352323Y-33489488D01*
X46357305Y-33491811D01*
X46357310Y-33491814D01*
X46462373Y-33540805D01*
X46515658Y-33587722D01*
X46535119Y-33655999D01*
X46514577Y-33723959D01*
X46462373Y-33769195D01*
X46357311Y-33818186D01*
X46357306Y-33818189D01*
X46352324Y-33820512D01*
X46347817Y-33823668D01*
X46347815Y-33823669D01*
X46174730Y-33944864D01*
X46174727Y-33944866D01*
X46170219Y-33948023D01*
X46013023Y-34105219D01*
X46009866Y-34109727D01*
X46009864Y-34109730D01*
X45953031Y-34190896D01*
X45885512Y-34287324D01*
X45883189Y-34292306D01*
X45883186Y-34292311D01*
X45798099Y-34474781D01*
X45791560Y-34488804D01*
X45734022Y-34703537D01*
X45714647Y-34925000D01*
X45734022Y-35146463D01*
X45791560Y-35361196D01*
X45793882Y-35366177D01*
X45793883Y-35366178D01*
X45883186Y-35557689D01*
X45883189Y-35557694D01*
X45885512Y-35562676D01*
X45888668Y-35567183D01*
X45888669Y-35567185D01*
X45973265Y-35688000D01*
X46013023Y-35744781D01*
X46170219Y-35901977D01*
X46174727Y-35905134D01*
X46174730Y-35905136D01*
X46234405Y-35946921D01*
X46352323Y-36029488D01*
X46357305Y-36031811D01*
X46357310Y-36031814D01*
X46462373Y-36080805D01*
X46515658Y-36127722D01*
X46535119Y-36195999D01*
X46514577Y-36263959D01*
X46462373Y-36309195D01*
X46357311Y-36358186D01*
X46357306Y-36358189D01*
X46352324Y-36360512D01*
X46347817Y-36363668D01*
X46347815Y-36363669D01*
X46174730Y-36484864D01*
X46174727Y-36484866D01*
X46170219Y-36488023D01*
X46013023Y-36645219D01*
X46009866Y-36649727D01*
X46009864Y-36649730D01*
X45961219Y-36719203D01*
X45885512Y-36827324D01*
X45883189Y-36832306D01*
X45883186Y-36832311D01*
X45798099Y-37014781D01*
X45791560Y-37028804D01*
X45734022Y-37243537D01*
X45714647Y-37465000D01*
X36765337Y-37465000D01*
X36761354Y-37455840D01*
X36661710Y-37301814D01*
X36642822Y-37272617D01*
X36642820Y-37272614D01*
X36640014Y-37268277D01*
X36489670Y-37103051D01*
X36485619Y-37099852D01*
X36485615Y-37099848D01*
X36318414Y-36967800D01*
X36318410Y-36967798D01*
X36314359Y-36964598D01*
X36272569Y-36941529D01*
X36222598Y-36891097D01*
X36207826Y-36821654D01*
X36232942Y-36755248D01*
X36260294Y-36728641D01*
X36435328Y-36603792D01*
X36443200Y-36597139D01*
X36594052Y-36446812D01*
X36600730Y-36438965D01*
X36725003Y-36266020D01*
X36730313Y-36257183D01*
X36824670Y-36066267D01*
X36828469Y-36056672D01*
X36890377Y-35852910D01*
X36892555Y-35842837D01*
X36893986Y-35831962D01*
X36891775Y-35817778D01*
X36878617Y-35814000D01*
X32892000Y-35814000D01*
X32823879Y-35793998D01*
X32777386Y-35740342D01*
X32766000Y-35688000D01*
X32766000Y-35432000D01*
X32786002Y-35363879D01*
X32839658Y-35317386D01*
X32892000Y-35306000D01*
X36878344Y-35306000D01*
X36891875Y-35302027D01*
X36893180Y-35292947D01*
X36851214Y-35125875D01*
X36847894Y-35116124D01*
X36762972Y-34920814D01*
X36758105Y-34911739D01*
X36642426Y-34732926D01*
X36636136Y-34724757D01*
X36492806Y-34567240D01*
X36485273Y-34560215D01*
X36318139Y-34428222D01*
X36309556Y-34422520D01*
X36272602Y-34402120D01*
X36222631Y-34351687D01*
X36207859Y-34282245D01*
X36232975Y-34215839D01*
X36260327Y-34189232D01*
X36283797Y-34172491D01*
X36439860Y-34061173D01*
X36598096Y-33903489D01*
X36657594Y-33820689D01*
X36725435Y-33726277D01*
X36728453Y-33722077D01*
X36749320Y-33679857D01*
X36825136Y-33526453D01*
X36825137Y-33526451D01*
X36827430Y-33521811D01*
X36875032Y-33365136D01*
X36890865Y-33313023D01*
X36890865Y-33313021D01*
X36892370Y-33308069D01*
X36921529Y-33086590D01*
X36921611Y-33083240D01*
X36923074Y-33023365D01*
X36923074Y-33023361D01*
X36923156Y-33020000D01*
X36904852Y-32797361D01*
X36850431Y-32580702D01*
X36826773Y-32526292D01*
X36817952Y-32455848D01*
X36848618Y-32391816D01*
X36909034Y-32354528D01*
X36925874Y-32351129D01*
X36941455Y-32349078D01*
X36969457Y-32345391D01*
X36969458Y-32345391D01*
X36980663Y-32343916D01*
X36980664Y-32343916D01*
X36988851Y-32342838D01*
X37136876Y-32281524D01*
X37150846Y-32270805D01*
X37232072Y-32208477D01*
X37232075Y-32208474D01*
X37257437Y-32189013D01*
X37263987Y-32183987D01*
X37283458Y-32158613D01*
X37294316Y-32146233D01*
X38565782Y-30874767D01*
X38628094Y-30840741D01*
X38643455Y-30838381D01*
X38708100Y-30832498D01*
X38714802Y-30830320D01*
X38714804Y-30830320D01*
X38873909Y-30778624D01*
X38873912Y-30778623D01*
X38880608Y-30776447D01*
X39036412Y-30683569D01*
X39167766Y-30558482D01*
X39268143Y-30407402D01*
X39318102Y-30275886D01*
X39330055Y-30244420D01*
X39330056Y-30244418D01*
X39332555Y-30237838D01*
X39342694Y-30165696D01*
X39357248Y-30062139D01*
X39357248Y-30062136D01*
X39357799Y-30058217D01*
X39357952Y-30047238D01*
X39358061Y-30039462D01*
X39358061Y-30039457D01*
X39358116Y-30035500D01*
X39337897Y-29855245D01*
X39332423Y-29839525D01*
X39280564Y-29690606D01*
X39280562Y-29690603D01*
X39278245Y-29683948D01*
X39237287Y-29618401D01*
X39185859Y-29536098D01*
X39182126Y-29530124D01*
X39177164Y-29525127D01*
X39059278Y-29406415D01*
X39059274Y-29406412D01*
X39054315Y-29401418D01*
X38901166Y-29304227D01*
X38765088Y-29255772D01*
X38707623Y-29214078D01*
X38688363Y-29178510D01*
X38645564Y-29055606D01*
X38645562Y-29055603D01*
X38643245Y-29048948D01*
X38616337Y-29005886D01*
X38550859Y-28901098D01*
X38547126Y-28895124D01*
X38542164Y-28890127D01*
X38424278Y-28771415D01*
X38424274Y-28771412D01*
X38419315Y-28766418D01*
X38408197Y-28759362D01*
X38360038Y-28728800D01*
X38266166Y-28669227D01*
X38236963Y-28658828D01*
X38101925Y-28610743D01*
X38101920Y-28610742D01*
X38095290Y-28608381D01*
X38088302Y-28607548D01*
X38088299Y-28607547D01*
X37965198Y-28592868D01*
X37915180Y-28586904D01*
X37908177Y-28587640D01*
X37908176Y-28587640D01*
X37741788Y-28605128D01*
X37741786Y-28605129D01*
X37734788Y-28605864D01*
X37563079Y-28664318D01*
X37408588Y-28759362D01*
X37403554Y-28764291D01*
X37402276Y-28765290D01*
X37336282Y-28791467D01*
X37324704Y-28792000D01*
X37010092Y-28792000D01*
X36941971Y-28771998D01*
X36933403Y-28765973D01*
X36914575Y-28751526D01*
X36914572Y-28751523D01*
X36822519Y-28680887D01*
X36780652Y-28623550D01*
X36776431Y-28552679D01*
X36786266Y-28525100D01*
X36794855Y-28507722D01*
X36827430Y-28441811D01*
X36875032Y-28285136D01*
X36890865Y-28233023D01*
X36890865Y-28233021D01*
X36892370Y-28228069D01*
X36921529Y-28006590D01*
X36921611Y-28003240D01*
X36923074Y-27943365D01*
X36923074Y-27943361D01*
X36923156Y-27940000D01*
X36904852Y-27717361D01*
X36850431Y-27500702D01*
X36761354Y-27295840D01*
X36661710Y-27141814D01*
X36642822Y-27112617D01*
X36642820Y-27112614D01*
X36640014Y-27108277D01*
X36622488Y-27089016D01*
X36492798Y-26946488D01*
X36461746Y-26882642D01*
X36470141Y-26812143D01*
X36515317Y-26757375D01*
X36541761Y-26743706D01*
X36648297Y-26703767D01*
X36656705Y-26700615D01*
X36773261Y-26613261D01*
X36860615Y-26496705D01*
X36911745Y-26360316D01*
X36918500Y-26298134D01*
X36918500Y-24501866D01*
X36911745Y-24439684D01*
X36860615Y-24303295D01*
X36773261Y-24186739D01*
X36656705Y-24099385D01*
X36520316Y-24048255D01*
X36458134Y-24041500D01*
X34661866Y-24041500D01*
X34599684Y-24048255D01*
X34463295Y-24099385D01*
X34346739Y-24186739D01*
X34259385Y-24303295D01*
X34256233Y-24311703D01*
X34214919Y-24421907D01*
X34172277Y-24478671D01*
X34105716Y-24503371D01*
X34036367Y-24488163D01*
X34003743Y-24462476D01*
X33953151Y-24406875D01*
X33953142Y-24406866D01*
X33949670Y-24403051D01*
X33945619Y-24399852D01*
X33945615Y-24399848D01*
X33778414Y-24267800D01*
X33778410Y-24267798D01*
X33774359Y-24264598D01*
X33578789Y-24156638D01*
X33573920Y-24154914D01*
X33573916Y-24154912D01*
X33373087Y-24083795D01*
X33373083Y-24083794D01*
X33368212Y-24082069D01*
X33363119Y-24081162D01*
X33363116Y-24081161D01*
X33153373Y-24043800D01*
X33153367Y-24043799D01*
X33148284Y-24042894D01*
X33074452Y-24041992D01*
X32930081Y-24040228D01*
X32930079Y-24040228D01*
X32924911Y-24040165D01*
X32704091Y-24073955D01*
X32491756Y-24143357D01*
X32293607Y-24246507D01*
X32289474Y-24249610D01*
X32289471Y-24249612D01*
X32119100Y-24377530D01*
X32114965Y-24380635D01*
X32075525Y-24421907D01*
X32021280Y-24478671D01*
X31960629Y-24542138D01*
X31834743Y-24726680D01*
X31740688Y-24929305D01*
X31738674Y-24928370D01*
X31701951Y-24977878D01*
X31635541Y-25002980D01*
X31566101Y-24988194D01*
X31515679Y-24938213D01*
X31500000Y-24877342D01*
X31500000Y-22134000D01*
X31520002Y-22065879D01*
X31573658Y-22019386D01*
X31626000Y-22008000D01*
X50124000Y-22008000D01*
X50192121Y-22028002D01*
G37*
%TD.AperFunction*%
%TD*%
M02*
