M48
; DRILL file {KiCad 6.0.0} date Sun 23 Jan 2022 02:07:13 PM EET
; FORMAT={-:-/ absolute / inch / decimal}
; #@! TF.CreationDate,2022-01-23T14:07:13+02:00
; #@! TF.GenerationSoftware,Kicad,Pcbnew,6.0.0
; #@! TF.FileFunction,MixedPlating,1,2
FMAT,2
INCH
; #@! TA.AperFunction,Plated,PTH,ViaDrill
T1C0.0118
; #@! TA.AperFunction,Plated,PTH,ComponentDrill
T2C0.0354
; #@! TA.AperFunction,Plated,PTH,ComponentDrill
T3C0.0394
; #@! TA.AperFunction,Plated,PTH,ComponentDrill
T4C0.0669
; #@! TA.AperFunction,NonPlated,NPTH,ComponentDrill
T5C0.1260
%
G90
G05
T1
X1.46Y-1.8775
X1.47Y-1.465
X1.47Y-1.55
X1.47Y-1.65
X1.4925Y-1.1575
X1.5175Y-1.1825
X1.58Y-1.275
X1.58Y-2.175
X1.655Y-2.315
X1.655Y-2.435
X1.69Y-2.315
X1.69Y-2.435
X1.725Y-2.314
X1.725Y-2.435
X1.84Y-1.62
X1.84Y-1.66
X1.84Y-1.7
X1.84Y-1.74
X1.84Y-1.78
X2.15Y-1.62
X2.15Y-1.66
X2.15Y-1.7
X2.15Y-1.74
X2.15Y-1.78
X2.6Y-0.9
X2.6Y-0.98
X2.6Y-1.06
X2.6Y-1.14
X2.6Y-1.22
X2.6Y-1.3
X2.6Y-1.38
X2.6Y-1.46
X2.6Y-1.54
X2.6Y-1.62
X2.6Y-1.7
X2.6Y-1.78
X2.6Y-1.86
X2.6Y-1.94
X2.6Y-2.02
X2.6Y-2.1
X2.6Y-2.18
X2.6Y-2.26
X2.6Y-2.34
X2.6Y-2.42
X2.6Y-2.5
T2
X1.85Y-1.075
X1.85Y-1.175
X1.85Y-1.275
X1.85Y-1.375
X1.85Y-1.475
X1.85Y-1.975
X1.85Y-2.075
X1.85Y-2.175
X1.85Y-2.275
X1.85Y-2.375
X1.95Y-1.025
X1.95Y-1.125
X1.95Y-1.225
X1.95Y-1.325
X1.95Y-1.425
X1.95Y-1.925
X1.95Y-2.025
X1.95Y-2.125
X1.95Y-2.225
X1.95Y-2.325
T3
X1.3Y-1.0
X1.3Y-1.1
X1.3Y-1.2
X1.3Y-1.3
X1.3Y-1.4
X1.3Y-1.5
X1.3Y-1.6
X1.3Y-1.7
X1.3Y-1.8
X1.3Y-1.9
X1.3Y-2.0
X1.3Y-2.1
X1.3Y-2.2
X1.3Y-2.3
X1.3Y-2.4
X1.4Y-1.0
X1.4Y-1.1
X1.4Y-1.2
X1.4Y-1.3
X1.4Y-1.4
X1.4Y-1.5
X1.4Y-1.6
X1.4Y-1.7
X1.4Y-1.8
X1.4Y-1.9
X1.4Y-2.0
X1.4Y-2.1
X1.4Y-2.2
X1.4Y-2.3
X1.4Y-2.4
X2.3929Y-0.989
X2.3929Y-1.089
X2.3929Y-1.411
X2.3929Y-1.511
X2.3929Y-1.889
X2.3929Y-1.989
X2.3929Y-2.311
X2.3929Y-2.411
T4
X2.0799Y-0.9449
X2.0799Y-1.5551
X2.0799Y-1.8449
X2.0799Y-2.4551
T5
X2.2Y-1.025
X2.2Y-1.475
X2.2Y-1.925
X2.2Y-2.375
T0
M30
